<svg width="20" height="20" viewBox="0 0 20 20" fill="none" xmlns="http://www.w3.org/2000/svg">
<path d="M9.9987 11.6666C10.9192 11.6666 11.6654 10.9204 11.6654 9.99992C11.6654 9.07944 10.9192 8.33325 9.9987 8.33325C9.07822 8.33325 8.33203 9.07944 8.33203 9.99992C8.33203 10.9204 9.07822 11.6666 9.9987 11.6666Z" stroke="#292D32" stroke-width="1.5" stroke-linecap="round" stroke-linejoin="round"/>
<path d="M16.668 15C17.718 13.6083 18.3346 11.875 18.3346 10C18.3346 8.125 17.718 6.39167 16.668 5" stroke="#292D32" stroke-width="1.5" stroke-linecap="round" stroke-linejoin="round"/>
<path d="M3.33464 5C2.28464 6.39167 1.66797 8.125 1.66797 10C1.66797 11.875 2.28464 13.6083 3.33464 15" stroke="#292D32" stroke-width="1.5" stroke-linecap="round" stroke-linejoin="round"/>
<path d="M14 13C14.625 12.1667 15 11.125 15 10C15 8.87501 14.625 7.83333 14 7" stroke="#292D32" stroke-width="1.5" stroke-linecap="round" stroke-linejoin="round"/>
<path d="M6.00001 7C5.37501 7.83333 5 8.87501 5 10C5 11.125 5.37501 12.1667 6.00001 13" stroke="#292D32" stroke-width="1.5" stroke-linecap="round" stroke-linejoin="round"/>
</svg>
