<svg width="268" height="237" viewBox="0 0 268 237" fill="none" xmlns="http://www.w3.org/2000/svg">
<g clip-path="url(#clip0_564_48716)">
<path d="M35.3378 170.349C27.6876 170.348 20.3508 167.309 14.9413 161.9C9.53179 156.49 6.49258 149.153 6.49219 141.503C6.49219 127.759 8.8479 125.77 37.6653 101.435C50.2535 90.8039 67.0391 76.7225 83.8245 62.6727C117.35 34.6155 150.871 6.68491 150.871 6.68491C156.75 1.7941 164.33 -0.562385 171.945 0.13341C179.561 0.829205 186.588 4.52034 191.483 10.3955C196.378 16.2707 198.74 23.8491 198.05 31.465C197.359 39.0809 193.673 46.1111 187.802 51.0104C141.033 89.9729 65.0528 153.5 55.9966 161.634C53.3122 164.396 50.1003 166.591 46.5515 168.088C43.0027 169.585 39.1894 170.354 35.3378 170.349ZM59.4507 157.341C58.6297 158.587 57.7139 159.768 56.7113 160.873C57.7225 159.775 58.6389 158.594 59.4507 157.341Z" fill="#EAF0F5"/>
<path d="M28.8456 236.997C21.1954 236.997 13.8586 233.958 8.44911 228.548C3.0396 223.139 0.000396759 215.802 0 208.151C0 193.922 1.90852 192.397 33.7788 166.956C47.5607 155.952 65.9413 141.374 84.3184 126.828C121.03 97.7744 157.742 68.8474 157.742 68.8474C163.751 64.1125 171.394 61.9585 178.991 62.8592C186.587 63.7599 193.515 67.6415 198.25 73.6501C202.985 79.6587 205.139 87.3022 204.238 94.899C203.337 102.496 199.456 109.424 193.447 114.159C142.024 154.682 58.5433 220.687 48.9304 228.856C43.5535 234.086 36.3461 237.007 28.8456 236.997ZM53.149 223.694C52.1203 225.302 50.9336 226.804 49.6067 228.177C50.9431 226.812 52.1306 225.31 53.149 223.694Z" fill="#EAF0F5"/>
<path d="M112.111 235.791C104.461 235.79 97.124 232.751 91.7145 227.341C86.3051 221.932 83.266 214.595 83.2656 206.945C83.2656 193.786 85.4804 191.782 112.611 167.267C124.537 156.485 140.443 142.207 156.348 127.959C188.116 99.5076 219.88 71.1827 219.88 71.1827C225.597 66.134 233.079 63.5545 240.692 64.0085C248.305 64.4624 255.429 67.9128 260.504 73.6049C265.58 79.297 268.195 86.7677 267.777 94.3828C267.36 101.998 263.943 109.138 258.275 114.24C213.986 153.735 142.027 218.124 133.411 226.396C130.711 229.36 127.422 231.727 123.754 233.345C120.086 234.963 116.12 235.796 112.111 235.791ZM136.076 223.005C135.488 223.881 134.852 224.724 134.171 225.53C134.857 224.728 135.493 223.885 136.076 223.005H136.076Z" fill="#EAF0F5"/>
<path d="M182.485 74.8818V216.471C182.481 219.772 181.169 222.937 178.834 225.271C176.5 227.605 173.336 228.918 170.035 228.921H48.4653C48.0373 228.931 47.6092 228.911 47.1842 228.86C44.1233 228.534 41.2907 227.089 39.2296 224.802C37.1685 222.516 36.024 219.549 36.0157 216.471V74.8818C36.0122 73.2459 36.3319 71.6254 36.9563 70.1134C37.5808 68.6013 38.4977 67.2275 39.6544 66.0707C40.8112 64.914 42.185 63.997 43.697 63.3726C45.209 62.7481 46.8295 62.4285 48.4654 62.4319H170.035C171.671 62.4285 173.291 62.7481 174.803 63.3726C176.315 63.997 177.689 64.9139 178.846 66.0707C180.003 67.2275 180.919 68.6013 181.544 70.1134C182.168 71.6254 182.488 73.2459 182.485 74.8818Z" fill="#D8E3EA"/>
<path d="M170.096 74.8211V216.41C170.092 219.711 168.779 222.875 166.445 225.21C164.111 227.544 160.947 228.857 157.646 228.86H47.1842C44.1233 228.534 41.2907 227.089 39.2296 224.802C37.1685 222.516 36.024 219.549 36.0157 216.471V74.8818C36.0122 73.2459 36.3319 71.6254 36.9563 70.1134C37.5808 68.6013 38.4977 67.2275 39.6544 66.0707C40.8112 64.914 42.185 63.997 43.697 63.3726C45.209 62.7481 46.8295 62.4285 48.4654 62.4319H158.928C161.996 62.7393 164.84 64.1786 166.905 66.4691C168.969 68.7597 170.107 71.7373 170.096 74.8211Z" fill="white"/>
<path d="M199.074 46.2795V187.898C199.075 189.536 198.753 191.159 198.127 192.673C197.5 194.186 196.582 195.562 195.423 196.72C194.265 197.879 192.889 198.797 191.376 199.424C189.862 200.05 188.239 200.372 186.601 200.371H76.1285C73.0694 200.04 70.2398 198.593 68.1814 196.306C66.1231 194.018 64.9806 191.053 64.9727 187.976V91.833H170.1V74.7896C170.112 71.7022 168.964 68.723 166.884 66.4418C164.803 64.1606 161.942 62.7436 158.867 62.4713H67.2192V39.2298C68.3757 37.5954 69.9087 36.2634 71.6885 35.3465C73.4684 34.4295 75.4429 33.9546 77.4451 33.9617H187.918C190.975 34.263 193.811 35.691 195.873 37.9679C197.935 40.2448 199.076 43.2076 199.074 46.2795Z" fill="#D8E3EA"/>
<path d="M182.483 74.882V91.7873H170.094V74.8211C170.105 71.7373 168.968 68.7597 166.903 66.4691C164.838 64.1786 161.994 62.7393 158.926 62.4319H170.033C171.669 62.4285 173.289 62.7481 174.801 63.3726C176.313 63.997 177.687 64.914 178.844 66.0708C180.001 67.2275 180.918 68.6014 181.542 70.1135C182.167 71.6255 182.486 73.2461 182.483 74.882Z" fill="#00C885"/>
<path d="M170.118 74.8141V91.8018H64.9961V62.4465H158.889C161.967 62.7331 164.826 64.1612 166.905 66.45C168.983 68.7388 170.129 71.7225 170.118 74.8141Z" fill="#FF9900"/>
<path d="M64.9995 62.4466V91.8019H36V74.8853C35.9959 73.2506 36.3148 71.6313 36.9384 70.1203C37.562 68.6093 38.4781 67.2364 39.6339 66.0805C40.7897 64.9247 42.1626 64.0086 43.6736 63.385C45.1845 62.7613 46.8039 62.4424 48.4385 62.4466L64.9995 62.4466Z" fill="#00C885"/>
<path d="M51.9544 81.0127C54.1081 81.0127 55.8541 79.2667 55.8541 77.1129C55.8541 74.9591 54.1081 73.2131 51.9544 73.2131C49.8006 73.2131 48.0547 74.9591 48.0547 77.1129C48.0547 79.2667 49.8006 81.0127 51.9544 81.0127Z" fill="#FF9900"/>
<path d="M64.9856 81.0127C67.1394 81.0127 68.8853 79.2667 68.8853 77.1129C68.8853 74.9591 67.1394 73.2131 64.9856 73.2131C62.8319 73.2131 61.0859 74.9591 61.0859 77.1129C61.0859 79.2667 62.8319 81.0127 64.9856 81.0127Z" fill="#FF9900"/>
<path d="M78.0091 81.0127C80.1628 81.0127 81.9088 79.2667 81.9088 77.1129C81.9088 74.9591 80.1628 73.2131 78.0091 73.2131C75.8553 73.2131 74.1094 74.9591 74.1094 77.1129C74.1094 79.2667 75.8553 81.0127 78.0091 81.0127Z" fill="#00C885"/>
<path d="M213.715 38.9529V180.542C213.712 183.843 212.399 187.008 210.065 189.342C207.731 191.676 204.566 192.989 201.265 192.992H79.696C79.268 193.002 78.8398 192.982 78.4146 192.931C75.3538 192.605 72.5212 191.16 70.4601 188.873C68.399 186.587 67.2545 183.62 67.2461 180.542V38.9529C67.2427 37.317 67.5623 35.6965 68.1868 34.1844C68.8112 32.6724 69.7281 31.2985 70.8849 30.1418C72.0416 28.985 73.4154 28.0681 74.9275 27.4436C76.4395 26.8192 78.0599 26.4995 79.6958 26.503H201.265C202.901 26.4995 204.522 26.8192 206.034 27.4436C207.546 28.0681 208.92 28.985 210.076 30.1418C211.233 31.2985 212.15 32.6724 212.775 34.1844C213.399 35.6965 213.719 37.317 213.715 38.9529Z" fill="#D8E3EA"/>
<path d="M201.324 38.9204V180.461C201.319 183.767 200.003 186.937 197.665 189.275C195.327 191.613 192.158 192.929 188.852 192.934H78.4559C75.3834 192.62 72.5357 191.18 70.4617 188.891C68.3876 186.602 67.2338 183.627 67.2227 180.539V38.9204C67.2231 37.2862 67.5466 35.6682 68.1746 34.1595C68.8025 32.6508 69.7225 31.2811 70.8816 30.1291C72.0407 28.9772 73.4161 28.0657 74.9287 27.4472C76.4413 26.8286 78.0612 26.5152 79.6953 26.5249H190.169C193.237 26.8316 196.081 28.272 198.144 30.5644C200.207 32.8568 201.341 35.8364 201.324 38.9204Z" fill="white"/>
<path d="M213.713 38.953V55.8584H201.324V38.8921C201.336 35.8083 200.198 32.8307 198.133 30.5402C196.069 28.2496 193.225 26.8103 190.156 26.503H201.263C202.899 26.4995 204.52 26.8192 206.032 27.4437C207.544 28.0681 208.918 28.9851 210.075 30.1418C211.231 31.2986 212.148 32.6725 212.773 34.1845C213.397 35.6966 213.717 37.3171 213.713 38.953Z" fill="#00C885"/>
<path d="M201.324 38.9204V55.8866H67.2227V38.9204C67.2231 37.2862 67.5466 35.6682 68.1746 34.1595C68.8025 32.6508 69.7225 31.2811 70.8816 30.1291C72.0407 28.9772 73.4161 28.0657 74.9287 27.4472C76.4413 26.8286 78.0612 26.5152 79.6953 26.5249H190.169C193.237 26.8316 196.081 28.272 198.144 30.5644C200.207 32.8568 201.341 35.8364 201.324 38.9204Z" fill="#476788"/>
<path d="M83.1927 45.0778C85.3464 45.0778 87.0924 43.3319 87.0924 41.1781C87.0924 39.0243 85.3464 37.2783 83.1927 37.2783C81.0389 37.2783 79.293 39.0243 79.293 41.1781C79.293 43.3319 81.0389 45.0778 83.1927 45.0778Z" fill="#00C885"/>
<path d="M96.2161 45.0778C98.3699 45.0778 100.116 43.3319 100.116 41.1781C100.116 39.0243 98.3699 37.2783 96.2161 37.2783C94.0624 37.2783 92.3164 39.0243 92.3164 41.1781C92.3164 43.3319 94.0624 45.0778 96.2161 45.0778Z" fill="#00C885"/>
<path d="M109.243 45.0778C111.397 45.0778 113.143 43.3319 113.143 41.1781C113.143 39.0243 111.397 37.2783 109.243 37.2783C107.09 37.2783 105.344 39.0243 105.344 41.1781C105.344 43.3319 107.09 45.0778 109.243 45.0778Z" fill="#00C885"/>
<path d="M110.974 106.436C114.334 106.436 117.057 103.712 117.057 100.352C117.057 96.9924 114.334 94.2688 110.974 94.2688C107.614 94.2688 104.891 96.9924 104.891 100.352C104.891 103.712 107.614 106.436 110.974 106.436Z" fill="#FF9900"/>
<path d="M169.4 106.436C172.759 106.436 175.483 103.712 175.483 100.352C175.483 96.9924 172.759 94.2688 169.4 94.2688C166.04 94.2688 163.316 96.9924 163.316 100.352C163.316 103.712 166.04 106.436 169.4 106.436Z" fill="#FF9900"/>
<path d="M113.713 139.897C112.717 139.898 111.75 139.564 110.966 138.95C110.183 138.336 109.629 137.476 109.392 136.508C109.156 135.541 109.252 134.522 109.664 133.616C110.076 132.71 110.781 131.968 111.665 131.51C120.034 127.514 129.182 125.416 138.455 125.367C147.729 125.317 156.899 127.317 165.31 131.224C166.358 131.756 167.153 132.682 167.52 133.798C167.887 134.915 167.797 136.132 167.269 137.182C166.741 138.232 165.818 139.03 164.703 139.402C163.587 139.773 162.37 139.687 161.318 139.163C154.147 135.935 146.364 134.286 138.5 134.328C130.635 134.371 122.871 136.104 115.735 139.41C115.108 139.729 114.416 139.896 113.713 139.897Z" fill="#FF9900"/>
<path d="M14.5159 213.973C14.0599 214.387 13.4583 214.603 12.8434 214.573C12.2285 214.543 11.6507 214.27 11.2371 213.814L7.11624 209.258C6.7027 208.801 6.4877 208.198 6.51854 207.582C6.54938 206.967 6.82354 206.388 7.28069 205.975C7.73785 205.561 8.34056 205.346 8.95624 205.377C9.57192 205.408 10.1501 205.682 10.5637 206.139L14.6846 210.695C15.097 211.152 15.3108 211.754 15.2792 212.369C15.2476 212.984 14.973 213.561 14.5159 213.973Z" fill="#076AFF"/>
<path d="M25.6105 226.24C25.3847 226.445 25.1208 226.603 24.8339 226.706C24.5469 226.809 24.2425 226.854 23.938 226.84C23.6335 226.825 23.3349 226.75 23.0593 226.62C22.7837 226.49 22.5364 226.306 22.3316 226.08L18.2109 221.525C17.8006 221.067 17.5883 220.465 17.6204 219.852C17.6525 219.238 17.9264 218.662 18.3823 218.249C18.8381 217.837 19.4387 217.622 20.0526 217.651C20.6666 217.681 21.2439 217.952 21.6583 218.406L25.7793 222.962C26.1916 223.419 26.4055 224.021 26.3739 224.636C26.3422 225.251 26.0676 225.828 25.6105 226.24Z" fill="#076AFF"/>
<path d="M26.441 210.2L21.8733 214.332C21.6476 214.536 21.3838 214.694 21.097 214.796C20.8103 214.898 20.5062 214.943 20.2022 214.928C19.5882 214.897 19.0115 214.623 18.599 214.168C18.1866 213.712 17.9721 213.11 18.0029 212.496C18.0337 211.882 18.3071 211.306 18.763 210.893L23.3307 206.761C23.5562 206.556 23.8201 206.397 24.1072 206.294C24.3942 206.191 24.6988 206.145 25.0035 206.16C25.3082 206.175 25.6069 206.25 25.8827 206.38C26.1584 206.511 26.4056 206.694 26.6103 206.92C26.8149 207.147 26.9729 207.411 27.0751 207.698C27.1774 207.986 27.222 208.29 27.2062 208.595C27.1905 208.9 27.1148 209.198 26.9835 209.474C26.8522 209.749 26.6678 209.996 26.441 210.2Z" fill="#076AFF"/>
<path d="M14.1451 221.328L9.57785 225.459C9.35227 225.665 9.0884 225.824 8.80134 225.927C8.51428 226.03 8.20969 226.075 7.90502 226.061C7.60035 226.046 7.30159 225.971 7.02587 225.841C6.75015 225.71 6.50289 225.527 6.29826 225.3C6.09363 225.074 5.93565 224.81 5.83338 224.522C5.73112 224.235 5.68657 223.93 5.7023 223.626C5.71803 223.321 5.79373 223.022 5.92505 222.747C6.05637 222.472 6.24073 222.225 6.46757 222.021L11.0353 217.889C11.2608 217.683 11.5247 217.524 11.812 217.421C12.0992 217.317 12.404 217.271 12.7089 217.286C13.0139 217.301 13.3129 217.375 13.5889 217.506C13.8649 217.637 14.1124 217.82 14.3172 218.047C14.522 218.273 14.68 218.538 14.7822 218.825C14.8844 219.113 14.9288 219.418 14.9128 219.723C14.8969 220.028 14.8208 220.327 14.689 220.602C14.5573 220.877 14.3725 221.124 14.1451 221.328Z" fill="#076AFF"/>
<path d="M9.17111 18.9742C9.03906 19.094 8.8847 19.1866 8.71687 19.2467C8.54903 19.3069 8.37099 19.3333 8.19292 19.3247C8.01485 19.316 7.84023 19.2723 7.67904 19.1961C7.51785 19.12 7.37324 19.0128 7.25346 18.8807L4.84345 16.2164C4.60159 15.949 4.47585 15.5965 4.49389 15.2364C4.51193 14.8764 4.67227 14.5382 4.93964 14.2963C5.20702 14.0545 5.55951 13.9287 5.91959 13.9468C6.27966 13.9648 6.61783 14.1252 6.85969 14.3925L9.26985 17.0569C9.51099 17.3243 9.63606 17.6765 9.61754 18.036C9.59902 18.3956 9.43844 18.7331 9.17111 18.9742Z" fill="#076AFF"/>
<path d="M15.6556 26.1481C15.5235 26.2678 15.3692 26.3604 15.2013 26.4206C15.0335 26.4807 14.8554 26.5072 14.6774 26.4985C14.4993 26.4898 14.3247 26.4461 14.1635 26.37C14.0023 26.2938 13.8577 26.1866 13.7379 26.0546L11.3278 23.3902C11.086 23.1229 10.9602 22.7704 10.9783 22.4103C10.9963 22.0502 11.1566 21.712 11.424 21.4702C11.6914 21.2283 12.0439 21.1026 12.404 21.1206C12.764 21.1386 13.1022 21.299 13.3441 21.5664L15.7542 24.2308C15.9954 24.4981 16.1204 24.8503 16.1019 25.2098C16.0834 25.5694 15.9229 25.9069 15.6556 26.1481Z" fill="#076AFF"/>
<path d="M16.1426 16.7725L13.4712 19.1892C13.3394 19.31 13.185 19.4035 13.0169 19.4644C12.8487 19.5253 12.6703 19.5524 12.4917 19.544C12.3131 19.5356 12.1379 19.492 11.9762 19.4157C11.8145 19.3394 11.6695 19.2318 11.5496 19.0992C11.4296 18.9666 11.3371 18.8116 11.2773 18.6431C11.2175 18.4746 11.1916 18.2959 11.2011 18.1174C11.2107 17.9389 11.2554 17.764 11.3328 17.6028C11.4102 17.4416 11.5187 17.2973 11.652 17.1782L14.3235 14.7616C14.4553 14.6408 14.6097 14.5472 14.7778 14.4863C14.9459 14.4254 15.1244 14.3984 15.303 14.4068C15.4816 14.4151 15.6568 14.4587 15.8185 14.5351C15.9802 14.6114 16.1251 14.719 16.2451 14.8516C16.365 14.9841 16.4576 15.1392 16.5174 15.3077C16.5772 15.4762 16.6031 15.6548 16.5935 15.8334C16.584 16.0119 16.5393 16.1868 16.4619 16.348C16.3845 16.5092 16.276 16.6535 16.1426 16.7725Z" fill="#076AFF"/>
<path d="M8.95484 23.2759L6.28367 25.6922C6.15186 25.813 5.99746 25.9065 5.82935 25.9674C5.66125 26.0283 5.48276 26.0553 5.30416 26.047C5.12556 26.0386 4.95038 25.995 4.7887 25.9187C4.62702 25.8423 4.48203 25.7348 4.36209 25.6022C4.24214 25.4696 4.14961 25.3146 4.08981 25.1461C4.03001 24.9776 4.00412 24.7989 4.01364 24.6204C4.02317 24.4418 4.06791 24.2669 4.14529 24.1057C4.22268 23.9446 4.33117 23.8003 4.46454 23.6812L7.13601 21.2645C7.4027 21.0234 7.75429 20.898 8.11342 20.916C8.47255 20.934 8.80981 21.094 9.051 21.3607C9.29219 21.6274 9.41756 21.979 9.39953 22.3381C9.38149 22.6973 9.22153 23.0345 8.95484 23.2757V23.2759Z" fill="#076AFF"/>
<path d="M227.323 213.686C227.191 213.806 227.037 213.898 226.869 213.958C226.701 214.019 226.523 214.045 226.345 214.036C226.167 214.028 225.992 213.984 225.831 213.908C225.67 213.832 225.525 213.725 225.405 213.592L222.995 210.928C222.755 210.66 222.631 210.309 222.65 209.95C222.669 209.591 222.829 209.254 223.096 209.013C223.362 208.772 223.714 208.646 224.073 208.663C224.432 208.68 224.769 208.839 225.012 209.104L227.422 211.769C227.663 212.036 227.788 212.388 227.769 212.748C227.751 213.107 227.59 213.445 227.323 213.686Z" fill="#076AFF"/>
<path d="M233.808 220.857C233.541 221.099 233.189 221.225 232.83 221.208C232.47 221.19 232.132 221.031 231.89 220.764L229.48 218.1C229.238 217.832 229.113 217.48 229.131 217.12C229.149 216.759 229.309 216.421 229.576 216.179C229.844 215.938 230.196 215.812 230.556 215.83C230.916 215.848 231.255 216.008 231.496 216.276L233.907 218.94C234.148 219.207 234.273 219.56 234.254 219.919C234.236 220.279 234.075 220.616 233.808 220.857Z" fill="#076AFF"/>
<path d="M234.291 211.478L231.62 213.895C231.488 214.016 231.333 214.109 231.165 214.17C230.997 214.231 230.819 214.258 230.64 214.25C230.462 214.241 230.286 214.198 230.125 214.121C229.963 214.045 229.818 213.938 229.698 213.805C229.578 213.672 229.486 213.517 229.426 213.349C229.366 213.18 229.34 213.002 229.35 212.823C229.359 212.645 229.404 212.47 229.481 212.309C229.559 212.147 229.667 212.003 229.8 211.884L232.472 209.468C232.604 209.348 232.758 209.255 232.926 209.194C233.094 209.134 233.272 209.107 233.45 209.116C233.629 209.125 233.803 209.168 233.965 209.245C234.126 209.321 234.27 209.428 234.39 209.561C234.51 209.693 234.602 209.848 234.662 210.016C234.722 210.184 234.748 210.362 234.739 210.54C234.729 210.718 234.685 210.893 234.608 211.054C234.532 211.215 234.424 211.359 234.291 211.479V211.478Z" fill="#076AFF"/>
<path d="M227.103 217.985L224.432 220.401C224.3 220.522 224.146 220.616 223.978 220.677C223.81 220.738 223.631 220.765 223.453 220.756C223.274 220.748 223.099 220.704 222.937 220.628C222.775 220.552 222.63 220.444 222.511 220.312C222.391 220.179 222.298 220.024 222.238 219.855C222.178 219.687 222.153 219.508 222.162 219.33C222.172 219.151 222.216 218.976 222.294 218.815C222.371 218.654 222.48 218.51 222.613 218.391L225.284 215.974C225.417 215.854 225.571 215.762 225.738 215.702C225.906 215.643 226.084 215.616 226.262 215.625C226.44 215.634 226.614 215.678 226.775 215.754C226.936 215.831 227.08 215.938 227.199 216.07C227.319 216.202 227.411 216.356 227.471 216.524C227.531 216.692 227.557 216.87 227.548 217.047C227.539 217.225 227.495 217.4 227.419 217.56C227.343 217.721 227.235 217.866 227.103 217.985V217.985Z" fill="#076AFF"/>
<path d="M248.113 29.0944L252.083 28.2757C252.481 28.1881 252.838 27.967 253.094 27.649C253.349 27.3311 253.489 26.9353 253.489 26.5273C253.489 26.1193 253.349 25.7236 253.094 25.4056C252.838 25.0876 252.481 24.8665 252.083 24.7789L248.113 23.9603C246.186 23.5528 244.422 22.5868 243.041 21.1827C241.661 19.7787 240.724 17.999 240.349 16.0658L239.544 12.0287C239.469 11.6271 239.256 11.2643 238.942 11.0032C238.628 10.7421 238.233 10.5991 237.824 10.5991C237.416 10.5991 237.02 10.7421 236.706 11.0032C236.392 11.2643 236.179 11.6271 236.105 12.0287L235.3 16.0658C234.925 17.999 233.988 19.7787 232.607 21.1827C231.227 22.5868 229.463 23.5528 227.536 23.9603L223.566 24.7789C223.167 24.8665 222.811 25.0876 222.555 25.4056C222.3 25.7236 222.16 26.1193 222.16 26.5273C222.16 26.9353 222.3 27.3311 222.555 27.649C222.811 27.967 223.167 28.1881 223.566 28.2757L227.536 29.0944C229.463 29.5018 231.226 30.4679 232.607 31.8719C233.988 33.2759 234.925 35.0556 235.3 36.9887L236.105 41.0259C236.179 41.4274 236.392 41.7903 236.706 42.0514C237.02 42.3125 237.416 42.4555 237.824 42.4555C238.233 42.4555 238.628 42.3125 238.942 42.0514C239.256 41.7903 239.469 41.4274 239.544 41.0259L240.349 36.9887C240.724 35.0556 241.661 33.2759 243.041 31.8719C244.422 30.4679 246.186 29.5018 248.113 29.0944Z" fill="#00C885"/>
<path d="M24.8937 130.39L28.2848 129.691C28.6252 129.616 28.9298 129.427 29.1482 129.155C29.3666 128.884 29.4856 128.546 29.4856 128.197C29.4856 127.849 29.3666 127.511 29.1482 127.239C28.9298 126.967 28.6252 126.779 28.2848 126.704L24.8937 126.005C23.2481 125.657 21.7416 124.831 20.5622 123.632C19.3828 122.433 18.5829 120.913 18.2624 119.262L17.5748 115.813C17.5111 115.47 17.3293 115.16 17.0611 114.937C16.7928 114.714 16.455 114.592 16.1061 114.592C15.7573 114.592 15.4194 114.714 15.1512 114.937C14.8829 115.16 14.7012 115.47 14.6375 115.813L13.9498 119.262C13.6293 120.913 12.8294 122.433 11.65 123.632C10.4707 124.831 8.9641 125.657 7.31854 126.005L3.92736 126.704C3.58699 126.779 3.28238 126.967 3.064 127.239C2.84561 127.511 2.72656 127.849 2.72656 128.197C2.72656 128.546 2.84561 128.884 3.064 129.155C3.28238 129.427 3.58699 129.616 3.92736 129.691L7.31854 130.39C8.9641 130.738 10.4706 131.563 11.65 132.762C12.8294 133.961 13.6293 135.481 13.9498 137.133L14.6375 140.581C14.7012 140.924 14.8829 141.234 15.1512 141.457C15.4194 141.68 15.7573 141.802 16.1061 141.802C16.455 141.802 16.7928 141.68 17.0611 141.457C17.3293 141.234 17.5111 140.924 17.5748 140.581L18.2624 137.133C18.583 135.481 19.3829 133.961 20.5622 132.762C21.7416 131.563 23.2482 130.738 24.8937 130.39Z" fill="#00C885"/>
<path d="M66.588 18.498L68.2836 18.1483C68.4538 18.1109 68.606 18.0165 68.7152 17.8807C68.8244 17.7449 68.8839 17.5759 68.8839 17.4017C68.8839 17.2274 68.8244 17.0584 68.7152 16.9226C68.606 16.7868 68.4538 16.6924 68.2836 16.655L66.588 16.3054C65.7652 16.1314 65.012 15.7188 64.4223 15.1192C63.8326 14.5196 63.4326 13.7595 63.2723 12.9339L62.9282 11.2098C62.8964 11.0382 62.8056 10.8833 62.6714 10.7717C62.5373 10.6602 62.3683 10.5991 62.1939 10.5991C62.0195 10.5991 61.8505 10.6602 61.7164 10.7717C61.5822 10.8833 61.4914 11.0382 61.4596 11.2098L61.1155 12.9339C60.9552 13.7595 60.5553 14.5196 59.9656 15.1192C59.3759 15.7188 58.6226 16.1314 57.7998 16.3054L56.1042 16.655C55.9341 16.6924 55.7818 16.7868 55.6726 16.9226C55.5634 17.0584 55.5039 17.2274 55.5039 17.4017C55.5039 17.5759 55.5634 17.7449 55.6726 17.8807C55.7818 18.0165 55.9341 18.1109 56.1042 18.1483L57.7998 18.498C58.6226 18.672 59.3759 19.0846 59.9656 19.6842C60.5553 20.2838 60.9552 21.0439 61.1155 21.8695L61.4596 23.5935C61.4914 23.7651 61.5822 23.92 61.7164 24.0316C61.8505 24.1431 62.0195 24.2042 62.1939 24.2042C62.3683 24.2042 62.5373 24.1431 62.6714 24.0316C62.8056 23.92 62.8964 23.7651 62.9282 23.5935L63.2723 21.8695C63.4326 21.0439 63.8326 20.2838 64.4223 19.6842C65.012 19.0846 65.7652 18.672 66.588 18.498Z" fill="#00C885"/>
<path d="M235.145 144.841L237.124 144.433C237.323 144.389 237.501 144.279 237.628 144.12C237.756 143.962 237.825 143.765 237.825 143.561C237.825 143.358 237.756 143.16 237.628 143.002C237.501 142.843 237.323 142.733 237.124 142.69L235.145 142.282C234.185 142.079 233.306 141.597 232.618 140.897C231.93 140.198 231.463 139.311 231.276 138.347L230.875 136.335C230.838 136.135 230.732 135.954 230.575 135.824C230.419 135.694 230.222 135.623 230.018 135.623C229.815 135.623 229.618 135.694 229.461 135.824C229.305 135.954 229.198 136.135 229.161 136.335L228.76 138.347C228.573 139.311 228.106 140.198 227.418 140.897C226.73 141.597 225.851 142.079 224.891 142.282L222.912 142.69C222.714 142.733 222.536 142.843 222.408 143.002C222.281 143.16 222.211 143.358 222.211 143.561C222.211 143.765 222.281 143.962 222.408 144.12C222.536 144.279 222.714 144.389 222.912 144.433L224.891 144.841C225.851 145.044 226.73 145.525 227.418 146.225C228.106 146.925 228.573 147.811 228.76 148.775L229.161 150.787C229.198 150.987 229.305 151.168 229.461 151.298C229.618 151.428 229.815 151.499 230.018 151.499C230.222 151.499 230.419 151.428 230.575 151.298C230.732 151.168 230.838 150.987 230.875 150.787L231.276 148.775C231.463 147.811 231.93 146.925 232.618 146.225C233.306 145.525 234.185 145.044 235.145 144.841Z" fill="#00C885"/>
</g>
<defs>
<clipPath id="clip0_564_48716">
<rect width="267.924" height="237" fill="white"/>
</clipPath>
</defs>
</svg>
