<svg width="20" height="20" viewBox="0 0 20 20" fill="none" xmlns="http://www.w3.org/2000/svg">
<path d="M15.1161 18.0166C14.3828 18.2333 13.5161 18.3333 12.4995 18.3333H7.49948C6.48281 18.3333 5.61615 18.2333 4.88281 18.0166C5.06615 15.85 7.29115 14.1416 9.99948 14.1416C12.7078 14.1416 14.9328 15.85 15.1161 18.0166Z" stroke="#292D32" stroke-width="1.5" stroke-linecap="round" stroke-linejoin="round"/>
<path d="M12.5013 1.66675H7.5013C3.33464 1.66675 1.66797 3.33341 1.66797 7.50008V12.5001C1.66797 15.6501 2.61797 17.3751 4.88464 18.0167C5.06797 15.8501 7.29297 14.1417 10.0013 14.1417C12.7096 14.1417 14.9346 15.8501 15.118 18.0167C17.3846 17.3751 18.3346 15.6501 18.3346 12.5001V7.50008C18.3346 3.33341 16.668 1.66675 12.5013 1.66675ZM10.0013 11.8084C8.3513 11.8084 7.01797 10.4668 7.01797 8.81676C7.01797 7.16676 8.3513 5.83341 10.0013 5.83341C11.6513 5.83341 12.9846 7.16676 12.9846 8.81676C12.9846 10.4668 11.6513 11.8084 10.0013 11.8084Z" stroke="#292D32" stroke-width="1.5" stroke-linecap="round" stroke-linejoin="round"/>
<path d="M12.9823 8.8166C12.9823 10.4666 11.649 11.8082 9.99896 11.8082C8.34896 11.8082 7.01562 10.4666 7.01562 8.8166C7.01562 7.1666 8.34896 5.83325 9.99896 5.83325C11.649 5.83325 12.9823 7.1666 12.9823 8.8166Z" stroke="#292D32" stroke-width="1.5" stroke-linecap="round" stroke-linejoin="round"/>
</svg>
