<svg width="20" height="20" viewBox="0 0 20 20" fill="none" xmlns="http://www.w3.org/2000/svg">
<path d="M13.493 1.66675H6.50964C3.4763 1.66675 1.66797 3.47508 1.66797 6.50841V13.4834C1.66797 16.5251 3.4763 18.3334 6.50964 18.3334H13.4846C16.518 18.3334 18.3263 16.5251 18.3263 13.4917V6.50841C18.3346 3.47508 16.5263 1.66675 13.493 1.66675ZM14.068 9.60841C14.068 9.93341 13.8096 10.1917 13.4846 10.1917C13.1596 10.1917 12.9013 9.93341 12.9013 9.60841V9.45842L10.6346 11.7251C10.5096 11.8501 10.343 11.9084 10.168 11.8917C9.99297 11.8751 9.83463 11.7834 9.74297 11.6334L8.89297 10.3667L6.90964 12.3501C6.79297 12.4667 6.6513 12.5167 6.5013 12.5167C6.3513 12.5167 6.2013 12.4584 6.09297 12.3501C5.86797 12.1251 5.86797 11.7584 6.09297 11.5251L8.5763 9.04175C8.7013 8.91675 8.86797 8.85841 9.04297 8.87508C9.21797 8.89175 9.3763 8.98342 9.46797 9.13342L10.318 10.4001L12.0763 8.64175H11.9263C11.6013 8.64175 11.343 8.38342 11.343 8.05842C11.343 7.73342 11.6013 7.47508 11.9263 7.47508H13.4763C13.5513 7.47508 13.6263 7.49175 13.7013 7.51675C13.843 7.57508 13.9596 7.69175 14.018 7.83341C14.0513 7.90841 14.0596 7.98342 14.0596 8.05842V9.60841H14.068Z" fill="white"/>
</svg>
