<svg width="30" height="30" viewBox="0 0 30 30" fill="none" xmlns="http://www.w3.org/2000/svg">
<rect width="30" height="30" rx="5" fill="#00C853"/>
<path fill-rule="evenodd" clip-rule="evenodd" d="M15 6C14.5219 6 14.0438 6.2565 13.812 6.76725L11.8163 11.1525L7.12503 11.8219C6.05966 11.9749 5.62316 13.2855 6.38141 14.0516L9.84977 17.556L9.00602 22.4587C8.85977 23.3126 9.5359 24 10.2953 24C10.509 24 10.7295 23.946 10.9388 23.8267L15 21.5138L19.0612 23.8267C19.2705 23.946 19.491 24 19.7047 24C20.4641 24 21.1402 23.3126 20.994 22.4587L20.1502 17.556L23.6186 14.0516C24.3768 13.2855 23.9403 11.9749 22.875 11.8219L18.1837 11.1525L16.188 6.76725C15.9562 6.2565 15.4781 6 15 6Z" fill="#F5F7FA"/>
</svg>
