<svg width="50" height="50" viewBox="0 0 50 50" fill="none" xmlns="http://www.w3.org/2000/svg">
<g opacity="0.6">
<path d="M40.9375 6.25H9.0625C7.5 6.25 6.25 7.5 6.25 8.90625V40.9375C6.25 42.3438 7.5 43.5938 9.0625 43.5938H40.9375C42.5 43.5938 43.75 42.3438 43.75 40.9375V8.90625C43.75 7.5 42.5 6.25 40.9375 6.25ZM17.3438 38.125H11.875V20.3125H17.3438V38.125ZM14.6875 17.8125C12.9687 17.8125 11.4063 16.4062 11.4063 14.5312C11.4063 12.6562 12.8125 11.25 14.6875 11.25C16.4062 11.25 17.9688 12.6562 17.9688 14.5312C17.9688 16.4062 16.4062 17.8125 14.6875 17.8125ZM38.2812 37.9687H32.8125V29.2188C32.8125 27.1875 32.8125 24.375 29.8438 24.375C26.875 24.375 26.5625 26.7188 26.5625 28.9062V37.8125H21.0938V20.3125H26.25V22.6562H26.4062C27.1875 21.25 29.0625 19.6875 31.7187 19.6875C37.3437 19.6875 38.4375 23.4375 38.4375 28.2812V37.9687H38.2812Z" fill="black"/>
</g>
</svg>
