<svg width="50" height="50" viewBox="0 0 50 50" fill="none" xmlns="http://www.w3.org/2000/svg">
<g opacity="0.6">
<path fill-rule="evenodd" clip-rule="evenodd" d="M6.26235 8.64963L6.81763 7.6887L7.71021 7.04768L8.50122 6.68713L42.7075 6.77776L43.6399 7.29338L44.6317 8.14612L44.7788 42.4031L44.1577 43.0776L42.9161 43.6528L8.22056 43.7981L7.0188 43.2172L6.15747 42.1758L6.26235 8.64963ZM8.10806 36.5528L42.8821 36.5293L42.9807 8.72014L8.23267 8.61389L8.10806 36.5528ZM15.3948 41.5278L20.0141 41.5688L20.0356 40.911L16.1862 40.8758L16.2245 40.1594L20.0045 40.175L20.0352 39.6791L16.2506 39.6479C16.2506 39.6479 16.2415 38.858 16.2514 38.7631C16.2614 38.6682 20.0393 38.858 20.0393 38.858L20.0295 38.3619L15.4334 38.3803L15.3948 41.5278ZM37.0745 41.3324L41.6938 41.3735L41.7153 40.7156L37.8659 40.6805L37.9042 39.9641L41.6842 39.9797L41.7149 39.4838L37.9303 39.4526C37.9303 39.4526 37.9211 38.6627 37.9311 38.5678C37.9411 38.4729 41.719 38.6627 41.719 38.6627L41.7092 38.1666L37.1131 38.185L37.0745 41.3324ZM21.5124 38.3963L21.4883 41.4561L27.5637 41.4844L27.568 38.409L26.4247 38.3934L26.4577 40.7074L24.934 40.7358L24.9032 38.4155L23.868 38.3801L23.8907 40.7649L22.4057 40.719L22.3641 38.3869L21.5125 38.3963H21.5124ZM29.0559 38.3787L28.9833 41.5399L29.834 41.5264C29.834 41.5264 29.8047 38.4326 29.7799 38.3832C29.7551 38.3336 29.0559 38.3789 29.0559 38.3789V38.3787ZM9.4022 38.4073L9.37544 41.5426L10.2532 41.5223L10.2514 40.2908L12.1729 40.3156L12.9241 41.369L14.1448 41.3783L13.17 40.3313L14 39.7582L13.9612 38.2877L9.4022 38.4073ZM31.2772 38.4073L31.2504 41.5426L32.1282 41.5223L32.1264 40.2908L34.0479 40.3156L34.7991 41.369L36.0198 41.3783L35.045 40.3313L35.875 39.7582L35.8362 38.2877L31.2772 38.4073Z" fill="black"/>
<path fill-rule="evenodd" clip-rule="evenodd" d="M10.3001 28.7042L14.6245 28.6427L17.5206 28.0815L20.2581 26.98L21.3878 26.3192L22.7247 27.2063L24.3512 27.9997L22.1249 29.3487L19.9624 30.4397L18.06 31.1141L15.8137 31.4495L10.3046 31.5511L10.3001 28.7042ZM10.2257 23.9952L12.6622 24.0137L14.0905 23.6735L15.5186 23.0526L17.3135 23.9409L19.1585 24.8335L16.9327 26.0829L14.6096 26.6184L12.6671 26.896L10.1239 26.935L10.2257 23.9952Z" fill="black"/>
<path fill-rule="evenodd" clip-rule="evenodd" d="M10.2715 20.9161L13.1082 21.0739L15.7664 21.9864L18.4244 23.1965L20.7447 24.3043L23.125 25.9311L25.4063 27.4385L27.5086 28.8252L30.2943 30.059L33.1111 31.2295L34.5988 31.4874L40.8486 31.486L40.8564 28.5221L35.8375 28.6803L32.7746 27.7793L29.5117 26.3579L26.9498 24.5567L24.2104 22.7352L21.4023 21.204L18.7215 19.7223L15.8436 18.4211L13.5768 17.8997L10.3141 17.9362L10.2715 20.9161Z" fill="black"/>
<path fill-rule="evenodd" clip-rule="evenodd" d="M10.3176 16.2975L14.5186 16.3074L16.8196 16.7637L19.2594 17.7754L21.501 18.9258L24.3575 20.6318L26.6584 22.2584L29.6538 24.1031L32.292 25.4322L35.0096 26.5033L37.0331 26.8801L41.0877 26.8988L41.086 23.9561L37.6229 24.0949L34.4 22.9937L31.317 21.2314L27.8346 19.2289L24.6329 17.1264L21.6303 15.384L18.7948 14.0729L16.8946 13.5521L16.0034 13.3711L10.3364 13.4959L10.3176 16.2975Z" fill="black"/>
<path fill-rule="evenodd" clip-rule="evenodd" d="M41.0961 20.7641L41.1416 17.6102L37.5785 17.6477L35.9168 17.9651L33.734 18.6198L32.0319 19.453L31.391 19.81L33.1739 20.699L34.959 21.6711L36.9227 21.1102L38.4303 20.8299L41.0961 20.7641ZM40.8698 16.1934L40.9639 13.0973L37.0795 13.1162L34.2971 13.1348L31.7338 13.8291L29.0313 15.0787L26.9492 16.6049L26.9645 16.9971L28.2737 17.7707L29.7018 18.7625L31.6061 17.6813L33.7682 16.9403L36.5057 16.3379L40.8698 16.1934ZM10.4219 39.0631L10.402 39.7574L12.7346 39.7754L12.8338 39.0545L10.4219 39.0631ZM32.2969 39.0631L32.277 39.7574L34.6096 39.7754L34.7088 39.0545L32.2969 39.0631Z" fill="black"/>
</g>
</svg>
