<svg width="51" height="50" viewBox="0 0 51 50" fill="none" xmlns="http://www.w3.org/2000/svg">
<g opacity="0.6">
<path d="M51 26.2032V21.6203C51 17.7422 47.1218 15.6282 43.95 15.6282C41.7425 15.8005 39.6453 16.6637 37.9562 18.0953C37.2286 17.3279 36.3546 16.7141 35.3858 16.29C34.417 15.866 33.373 15.6404 32.3156 15.6266C30.0864 15.7026 27.9592 16.579 26.3234 18.0953C25.7274 17.2654 24.9281 16.6024 24.0022 16.1701C23.0763 15.7378 22.0549 15.5507 21.0359 15.6266C19.9836 15.5452 18.9303 15.7709 18.0037 16.2762C17.0771 16.7815 16.317 17.5448 15.8156 18.4735L11.1656 29.0235L5.99995 17.1891C5.72404 16.558 5.20981 16.0616 4.56938 15.8081C3.92895 15.5546 3.21427 15.5647 2.5812 15.836C2.26043 15.9731 1.97042 16.1732 1.72831 16.4243C1.4862 16.6755 1.2969 16.9726 1.17163 17.2982C1.04635 17.6238 0.987624 17.9712 0.998929 18.3198C1.01024 18.6685 1.09134 19.0114 1.23745 19.3282L7.63901 33.2532C7.63901 33.2532 8.69682 35.7219 10.8109 35.7219C11.4601 35.8182 12.1229 35.6976 12.6966 35.379C13.2703 35.0603 13.7229 34.5614 13.9843 33.9594C14.4718 33.225 18.1734 25.4438 20.4031 20.725C20.4896 20.5431 20.6354 20.396 20.8166 20.3079C20.9978 20.2198 21.2035 20.1959 21.4 20.2403C21.5966 20.2847 21.7721 20.3946 21.8979 20.5519C22.0237 20.7093 22.0922 20.9048 22.0921 21.1063V32.8047C22.0827 33.5326 22.3488 34.2372 22.8371 34.7771C23.3254 35.3169 23.9998 35.6522 24.7249 35.7157C25.1103 35.7413 25.4967 35.6876 25.8604 35.5578C26.2241 35.428 26.5573 35.2249 26.8393 34.9611C27.1213 34.6972 27.3461 34.3783 27.4998 34.0241C27.6535 33.6698 27.7328 33.2878 27.7328 32.9016V23.2063C27.7506 22.4235 28.0741 21.6788 28.6341 21.1315C29.194 20.5843 29.9459 20.2778 30.7289 20.2778C31.5118 20.2778 32.2637 20.5843 32.8236 21.1315C33.3836 21.6788 33.7071 22.4235 33.7249 23.2063V32.9016C33.7249 33.6496 34.0221 34.3669 34.551 34.8959C35.0799 35.4248 35.7973 35.7219 36.5453 35.7219C37.2933 35.7219 38.0106 35.4248 38.5395 34.8959C39.0684 34.3669 39.3656 33.6496 39.3656 32.9016V23.2063C39.3656 22.4115 39.6813 21.6492 40.2433 21.0872C40.8054 20.5251 41.5676 20.2094 42.3624 20.2094C43.1573 20.2094 43.9195 20.5251 44.4816 21.0872C45.0436 21.6492 45.3593 22.4115 45.3593 23.2063V32.9016C45.3593 33.6496 45.6565 34.3669 46.1854 34.8959C46.7143 35.4248 47.4316 35.7219 48.1796 35.7219C48.9276 35.7219 49.645 35.4248 50.1739 34.8959C50.7028 34.3669 51 33.6496 51 32.9016V26.2032Z" fill="black"/>
</g>
</svg>
