<svg width="50" height="50" viewBox="0 0 50 50" fill="none" xmlns="http://www.w3.org/2000/svg">
<g opacity="0.6">
<path d="M10.125 11.875V18H3.125V32.8125H14.5V11.875H10.125ZM10.125 29.375H7.5V21.5625H10.125V29.375ZM16.25 18H20.625V32.875H16.25V18ZM16.25 11.875H20.625V16.25H16.25V11.875ZM22.375 18V32.8125H29.375V34.5625H22.375V38.125H33.75V18H22.375ZM29.375 29.375H26.75V21.5625H29.375V29.375ZM35.5 18V32.8125H42.5V34.5625H35.5V38.125H46.875V18H35.5ZM42.5 29.375H39.875V21.5625H42.5V29.375Z" fill="black"/>
</g>
</svg>
