<svg width="50" height="50" viewBox="0 0 50 50" fill="none" xmlns="http://www.w3.org/2000/svg">
<g opacity="0.6">
<path d="M17.8437 12.9532C17.6958 12.6057 17.4502 12.3086 17.1368 12.0979C16.8235 11.8871 16.4557 11.7717 16.0781 11.7657H9.82812C9.66396 11.7564 9.49998 11.787 9.35029 11.8551C9.2006 11.9231 9.06967 12.0265 8.96875 12.1563C8.88522 12.3041 8.84133 12.4709 8.84133 12.6407C8.84133 12.8104 8.88522 12.9773 8.96875 13.125L13.2344 20.5157L6.51562 32.375C6.42742 32.5212 6.3808 32.6887 6.3808 32.8594C6.3808 33.0301 6.42742 33.1976 6.51562 33.3438C6.59946 33.4828 6.71909 33.5967 6.86202 33.6737C7.00495 33.7507 7.16592 33.7878 7.32812 33.7813H13.5781C13.9527 33.7696 14.3155 33.6477 14.6212 33.431C14.9269 33.2142 15.1619 32.9121 15.2969 32.5625L22.1094 20.5157L17.8437 12.9532ZM43.4844 4.50005C43.5651 4.35135 43.6073 4.18485 43.6073 4.01567C43.6073 3.84649 43.5651 3.67999 43.4844 3.5313C43.392 3.39903 43.2676 3.29237 43.1227 3.22132C42.9779 3.15027 42.8174 3.11714 42.6562 3.12505H36.2812C35.9123 3.13547 35.5548 3.25544 35.2543 3.4697C34.9538 3.68395 34.7239 3.98279 34.5937 4.32817C34.5937 4.32817 21 28.4375 20.5312 29.2188L29.5 45.6719C29.6462 46.0188 29.8887 46.3164 30.1989 46.5297C30.509 46.7429 30.8738 46.8628 31.25 46.875H37.5C37.6641 46.8889 37.8289 46.8585 37.9773 46.787C38.1257 46.7156 38.2522 46.6057 38.3437 46.4688C38.4288 46.3215 38.4735 46.1545 38.4735 45.9844C38.4735 45.8144 38.4288 45.6473 38.3437 45.5L29.4531 29.25L43.4844 4.50005Z" fill="black"/>
</g>
</svg>
