<svg width="50" height="50" viewBox="0 0 50 50" fill="none" xmlns="http://www.w3.org/2000/svg">
<g opacity="0.6">
<path d="M32.8125 17.1875C34.8845 17.1875 36.8716 16.3644 38.3368 14.8993C39.8019 13.4341 40.625 11.447 40.625 9.375C40.625 7.303 39.8019 5.31586 38.3368 3.85073C36.8716 2.3856 34.8845 1.5625 32.8125 1.5625H17.1875C15.1155 1.5625 13.1284 2.3856 11.6632 3.85073C10.1981 5.31586 9.375 7.303 9.375 9.375C9.375 11.447 10.1981 13.4341 11.6632 14.8993C13.1284 16.3644 15.1155 17.1875 17.1875 17.1875C15.1155 17.1875 13.1284 18.0106 11.6632 19.4757C10.1981 20.9409 9.375 22.928 9.375 25C9.375 27.072 10.1981 29.0591 11.6632 30.5243C13.1284 31.9894 15.1155 32.8125 17.1875 32.8125C15.6423 32.8125 14.1319 33.2707 12.8471 34.1291C11.5624 34.9876 10.561 36.2077 9.96969 37.6353C9.37839 39.0628 9.22367 40.6337 9.52512 42.1491C9.82657 43.6646 10.5706 45.0567 11.6632 46.1493C12.7558 47.2419 14.1479 47.9859 15.6634 48.2874C17.1788 48.5888 18.7497 48.4341 20.1772 47.8428C21.6048 47.2515 22.8249 46.2502 23.6834 44.9654C24.5418 43.6806 25 42.1702 25 40.625V17.1875H32.8125Z" fill="black"/>
<path d="M32.8125 32.8125C37.1272 32.8125 40.625 29.3147 40.625 25C40.625 20.6853 37.1272 17.1875 32.8125 17.1875C28.4978 17.1875 25 20.6853 25 25C25 29.3147 28.4978 32.8125 32.8125 32.8125Z" fill="black"/>
</g>
</svg>
