<svg width="50" height="50" viewBox="0 0 50 50" fill="none" xmlns="http://www.w3.org/2000/svg">
<g opacity="0.6">
<path fill-rule="evenodd" clip-rule="evenodd" d="M14.2031 23.8219L21.5 27.3797C21.8095 27.5295 22.0653 27.7712 22.2325 28.0717C22.3997 28.3722 22.4702 28.717 22.4343 29.059C22.3985 29.401 22.258 29.7237 22.0321 29.9829C21.8061 30.2422 21.5057 30.4255 21.1718 30.5078L13.2968 32.4719C13.0653 32.5292 12.8242 32.5365 12.5896 32.4931C12.3551 32.4498 12.1325 32.357 11.9366 32.2208C11.7408 32.0846 11.5763 31.9081 11.4542 31.7033C11.332 31.4984 11.2549 31.2699 11.2281 31.0328C10.9848 28.9281 11.2089 26.7957 11.8843 24.7875C11.9605 24.5622 12.0839 24.3557 12.2463 24.1818C12.4086 24.0079 12.6062 23.8707 12.8258 23.7793C13.0455 23.6879 13.2821 23.6444 13.5198 23.6518C13.7576 23.6591 13.9911 23.7171 14.2047 23.8219H14.2031ZM17.125 38.8438L22.5562 32.8125C22.7856 32.5567 23.0882 32.3777 23.4229 32.3C23.7576 32.2223 24.1081 32.2496 24.4267 32.3782C24.7453 32.5067 25.0166 32.7304 25.2036 33.0186C25.3906 33.3069 25.4843 33.6457 25.4718 33.9891L25.189 42.1047C25.1808 42.3433 25.1216 42.5773 25.0156 42.7912C24.9095 43.005 24.759 43.1937 24.574 43.3447C24.3891 43.4956 24.174 43.6052 23.9432 43.6662C23.7124 43.7273 23.4713 43.7382 23.2359 43.6985C21.149 43.3464 19.1642 42.5428 17.4203 41.3438C17.2238 41.2088 17.0585 41.0335 16.9353 40.8294C16.812 40.6254 16.7339 40.3974 16.7059 40.1607C16.6779 39.924 16.7009 39.6841 16.7731 39.457C16.8454 39.2299 16.9654 39.0208 17.125 38.8438ZM30.0031 30.8157L37.725 33.325C37.9516 33.3986 38.16 33.5197 38.336 33.6803C38.5121 33.8408 38.6519 34.0371 38.7459 34.2561C38.84 34.475 38.8863 34.7115 38.8816 34.9497C38.8769 35.188 38.8214 35.4225 38.7187 35.6375C37.8078 37.5478 36.4906 39.2361 34.8593 40.5844C34.6754 40.7364 34.4612 40.8474 34.2309 40.9099C34.0007 40.9724 33.7597 40.985 33.5242 40.9468C33.2887 40.9086 33.064 40.8206 32.8653 40.6886C32.6666 40.5566 32.4983 40.3836 32.3718 40.1813L28.0687 33.2938C27.8859 33.0027 27.7972 32.6623 27.8148 32.319C27.8324 31.9757 27.9554 31.6462 28.167 31.3753C28.3786 31.1044 28.6686 30.9054 28.9974 30.8052C29.3263 30.7051 29.678 30.7087 30.0047 30.8157H30.0031ZM37.8547 25.8907L30.05 28.1282C29.7199 28.2231 29.3686 28.2141 29.0438 28.1024C28.7191 27.9907 28.4366 27.7817 28.2348 27.5037C28.033 27.2258 27.9217 26.8925 27.916 26.5491C27.9104 26.2057 28.0106 25.8688 28.2031 25.5844L32.7437 18.8532C32.8764 18.656 33.0497 18.4895 33.2519 18.3646C33.4541 18.2397 33.6805 18.1593 33.9162 18.1289C34.1519 18.0984 34.3914 18.1185 34.6187 18.1879C34.846 18.2573 35.0559 18.3744 35.2343 18.5313C36.8236 19.9319 38.0842 21.6658 38.9265 23.6094C39.0219 23.8281 39.0696 24.0646 39.0662 24.3032C39.0629 24.5417 39.0087 24.7769 38.9072 24.9928C38.8058 25.2087 38.6594 25.4005 38.4779 25.5554C38.2964 25.7102 38.0839 25.8245 37.8547 25.8907ZM19.6203 6.95316C18.2404 7.32219 16.8973 7.81697 15.6078 8.43128C15.3999 8.53085 15.2148 8.67234 15.0641 8.84686C14.9135 9.02139 14.8006 9.22518 14.7325 9.44543C14.6644 9.66569 14.6426 9.89764 14.6685 10.1267C14.6944 10.3558 14.7673 10.5771 14.8828 10.7766L22.5109 23.9891C22.6945 24.3089 22.9786 24.559 23.319 24.7006C23.6595 24.8421 24.0372 24.8672 24.3933 24.7718C24.7495 24.6764 25.0642 24.466 25.2883 24.1733C25.5125 23.8805 25.6336 23.5219 25.6328 23.1532V7.89535C25.633 7.66485 25.5856 7.43678 25.4935 7.22549C25.4014 7.01419 25.2666 6.82422 25.0976 6.66751C24.9285 6.5108 24.7289 6.39073 24.5113 6.31486C24.2936 6.23898 24.0626 6.20893 23.8328 6.2266C22.4088 6.3395 20.9983 6.58271 19.6187 6.95316H19.6203Z" fill="black"/>
</g>
</svg>
