<svg width="50" height="50" viewBox="0 0 50 50" fill="none" xmlns="http://www.w3.org/2000/svg">
<g opacity="0.6">
<path d="M14.1281 29.9468C14.1281 30.726 13.897 31.4876 13.4641 32.1354C13.0312 32.7832 12.416 33.2881 11.6961 33.5862C10.9762 33.8843 10.1841 33.9622 9.41999 33.8101C8.65584 33.658 7.95397 33.2827 7.40315 32.7316C6.85232 32.1806 6.47729 31.4786 6.32547 30.7144C6.17366 29.9502 6.25189 29.1581 6.55027 28.4384C6.84865 27.7186 7.35377 27.1035 8.00175 26.6709C8.64973 26.2382 9.41146 26.0075 10.1906 26.0078H14.1281V29.9468ZM16.1125 29.9468C16.1125 28.9019 16.5276 27.8998 17.2664 27.161C18.0053 26.4221 19.0074 26.007 20.0523 26.007C21.0972 26.007 22.0993 26.4221 22.8382 27.161C23.5771 27.8998 23.9922 28.9019 23.9922 29.9468V39.8109C23.9922 40.8556 23.5772 41.8575 22.8384 42.5962C22.0997 43.335 21.0978 43.75 20.0531 43.75C19.0084 43.75 18.0065 43.335 17.2678 42.5962C16.529 41.8575 16.114 40.8556 16.114 39.8109L16.1125 29.9468ZM20.0531 14.1281C19.274 14.1281 18.5123 13.897 17.8645 13.4641C17.2167 13.0312 16.7118 12.416 16.4137 11.6961C16.1156 10.9762 16.0377 10.1841 16.1898 9.41999C16.342 8.65584 16.7173 7.95397 17.2683 7.40315C17.8194 6.85232 18.5214 6.47729 19.2856 6.32547C20.0498 6.17366 20.8419 6.25189 21.5616 6.55027C22.2813 6.84865 22.8964 7.35377 23.3291 8.00175C23.7617 8.64973 23.9925 9.41146 23.9922 10.1906V14.1281H20.0531ZM20.0531 16.1125C21.098 16.1125 22.1001 16.5276 22.839 17.2664C23.5779 18.0053 23.9929 19.0074 23.9929 20.0523C23.9929 21.0972 23.5779 22.0993 22.839 22.8382C22.1001 23.5771 21.098 23.9922 20.0531 23.9922H10.1875C9.14277 23.9922 8.14086 23.5772 7.40214 22.8384C6.66342 22.0997 6.24841 21.0978 6.24841 20.0531C6.24841 19.0084 6.66342 18.0065 7.40214 17.2678C8.14086 16.529 9.14277 16.114 10.1875 16.114L20.0531 16.1125ZM35.8718 20.0531C35.8719 19.274 36.1029 18.5123 36.5358 17.8645C36.9687 17.2167 37.584 16.7118 38.3039 16.4137C39.0237 16.1156 39.8158 16.0377 40.58 16.1898C41.3441 16.342 42.046 16.7173 42.5968 17.2683C43.1476 17.8194 43.5227 18.5214 43.6745 19.2856C43.8263 20.0498 43.7481 20.8419 43.4497 21.5616C43.1513 22.2813 42.6462 22.8964 41.9982 23.3291C41.3502 23.7617 40.5885 23.9925 39.8093 23.9922H35.8718V20.0531ZM33.8875 20.0531C33.8875 21.098 33.4724 22.1001 32.7335 22.839C31.9947 23.5779 30.9925 23.9929 29.9476 23.9929C28.9027 23.9929 27.9006 23.5779 27.1617 22.839C26.4229 22.1001 26.0078 21.098 26.0078 20.0531V10.1875C26.0078 9.14277 26.4228 8.14086 27.1615 7.40214C27.9002 6.66342 28.9021 6.24841 29.9468 6.24841C30.9916 6.24841 31.9935 6.66342 32.7322 7.40214C33.4709 8.14086 33.8859 9.14277 33.8859 10.1875L33.8875 20.0531ZM29.9468 35.8718C30.726 35.8719 31.4876 36.1029 32.1354 36.5358C32.7832 36.9687 33.2881 37.584 33.5862 38.3039C33.8843 39.0237 33.9622 39.8158 33.8101 40.58C33.658 41.3441 33.2827 42.046 32.7316 42.5968C32.1806 43.1476 31.4786 43.5227 30.7144 43.6745C29.9502 43.8263 29.1581 43.7481 28.4384 43.4497C27.7186 43.1513 27.1035 42.6462 26.6709 41.9982C26.2382 41.3502 26.0075 40.5885 26.0078 39.8093V35.8718H29.9468ZM29.9468 33.8875C28.9019 33.8875 27.8998 33.4724 27.161 32.7335C26.4221 31.9947 26.007 30.9925 26.007 29.9476C26.007 28.9027 26.4221 27.9006 27.161 27.1617C27.8998 26.4229 28.9019 26.0078 29.9468 26.0078H39.8109C40.8556 26.0078 41.8575 26.4228 42.5962 27.1615C43.335 27.9002 43.75 28.9021 43.75 29.9468C43.75 30.9916 43.335 31.9935 42.5962 32.7322C41.8575 33.4709 40.8556 33.8859 39.8109 33.8859L29.9468 33.8875Z" fill="black"/>
</g>
</svg>
