<svg width="50" height="50" viewBox="0 0 50 50" fill="none" xmlns="http://www.w3.org/2000/svg">
<g opacity="0.6">
<path fill-rule="evenodd" clip-rule="evenodd" d="M1.5824 19.7098H4.00154V25.6111H7.77732V27.5391H1.5824V19.7098ZM13.6947 26.2467H10.9388L10.5601 27.5391H8.08748L11.0301 19.7098H13.6679L16.6107 27.5391H14.0793L13.6947 26.2467ZM13.1875 24.5537L12.3222 21.7393L11.4623 24.5537H13.1875ZM17.4172 19.71H21.0113C21.7199 19.71 22.2922 19.8059 22.7283 19.9982C23.1644 20.1904 23.525 20.4664 23.8097 20.826C24.0947 21.1855 24.3011 21.6039 24.4293 22.0811C24.5574 22.558 24.6215 23.0635 24.6215 23.5977C24.6215 24.4344 24.5263 25.0832 24.3359 25.5443C24.1453 26.0053 23.8808 26.3918 23.5429 26.7033C23.2045 27.0148 22.8414 27.2223 22.4531 27.3254C21.9228 27.468 21.4422 27.5391 21.0113 27.5391H17.4172V19.7098V19.71ZM19.8363 21.4828V25.7607H20.4293C20.9347 25.7607 21.2945 25.7045 21.508 25.5924C21.7217 25.4803 21.8888 25.2844 22.0099 25.0049C22.131 24.7256 22.1916 24.2725 22.1916 23.6457C22.1916 22.8162 22.0562 22.2482 21.7857 21.9422C21.5152 21.6359 21.0666 21.4828 20.44 21.4828H19.8365H19.8363ZM25.4707 24.9488L27.7724 24.8047C27.8224 25.1785 27.9238 25.4633 28.0769 25.6592C28.3261 25.976 28.6822 26.1346 29.1451 26.1346C29.4904 26.1346 29.7564 26.0535 29.9435 25.8914C30.1304 25.7295 30.2238 25.5418 30.2238 25.3281C30.2238 25.125 30.1347 24.9434 29.9568 24.7832C29.7787 24.623 29.3658 24.4719 28.7177 24.3293C27.6568 24.0908 26.9002 23.774 26.4482 23.3787C25.9924 22.9836 25.7646 22.4797 25.7646 21.8674C25.7646 21.465 25.881 21.085 26.1142 20.7271C26.3474 20.3693 26.6982 20.0881 27.1664 19.8834C27.6345 19.6787 28.2763 19.5762 29.0916 19.5762C30.0922 19.5762 30.8549 19.7623 31.3801 20.1344C31.9052 20.5064 32.2176 21.0982 32.3174 21.9102L30.0369 22.0436C29.9763 21.6912 29.849 21.4348 29.6551 21.2746C29.4609 21.1145 29.1931 21.0344 28.8513 21.0344C28.5701 21.0344 28.3582 21.0939 28.2158 21.2131C28.0732 21.3324 28.0021 21.4775 28.0021 21.6484C28.0021 21.773 28.0607 21.8852 28.1783 21.9848C28.2924 22.0883 28.5631 22.1842 28.9902 22.2732C30.0476 22.5012 30.8051 22.7316 31.2625 22.9648C31.7201 23.198 32.0529 23.4873 32.2613 23.8326C32.4695 24.1781 32.5738 24.5645 32.5738 24.9916C32.5738 25.4936 32.4347 25.9564 32.1572 26.3803C31.8795 26.8039 31.4912 27.1252 30.9929 27.3441C30.4943 27.5631 29.866 27.6727 29.1076 27.6727C27.7761 27.6727 26.8539 27.4162 26.3412 26.9035C25.8285 26.3908 25.5385 25.7395 25.4707 24.9488ZM33.7806 19.7098H37.8021C38.6779 19.7098 39.334 19.918 39.7701 20.3348C40.2062 20.7512 40.4244 21.3439 40.4244 22.1131C40.4244 22.9035 40.1867 23.5213 39.7115 23.9662C39.2361 24.4113 38.5107 24.6338 37.5351 24.6338H36.2105V27.5391H33.7806V19.7098ZM36.2105 23.0477H36.8035C37.2699 23.0477 37.5974 22.9666 37.7859 22.8047C37.9748 22.6426 38.0691 22.4352 38.0691 22.1824C38.0691 21.9367 37.9871 21.7285 37.8234 21.5576C37.6597 21.3867 37.3517 21.3012 36.8996 21.3012H36.2105V23.0477ZM45.5779 26.2467H42.8222L42.4431 27.5391H39.9705L42.9131 19.7098H45.5513L48.4939 27.5391H45.9627L45.5779 26.2467ZM45.0707 24.5537L44.2054 21.7393L43.3457 24.5537H45.0707Z" fill="black"/>
</g>
</svg>
