<svg width="50" height="50" viewBox="0 0 50 50" fill="none" xmlns="http://www.w3.org/2000/svg">
<g opacity="0.6">
<path fill-rule="evenodd" clip-rule="evenodd" d="M1.39898 12.0614C1.25581 12.2239 1.1396 12.5313 1.13921 12.7461L1.11324 34.1967C1.11284 34.4125 1.19468 34.742 1.29605 34.9329L1.34449 35.0245C1.44566 35.2153 1.70308 35.3717 1.91988 35.3741L13.8873 35.5014C14.1039 35.5038 14.4107 35.3874 14.5705 35.244L17.1421 32.9325C17.3029 32.7879 17.6084 32.6715 17.8242 32.6723L23.9904 32.6946C24.2064 32.6954 24.381 32.8708 24.3802 33.0868L24.3796 33.3086C24.3796 33.36 24.3693 33.4109 24.3495 33.4583C24.3297 33.5057 24.3008 33.5487 24.2643 33.5849C24.2278 33.6211 24.1845 33.6497 24.137 33.6691C24.0894 33.6885 24.0384 33.6983 23.9871 33.6979L21.8449 33.6891C21.7408 33.6887 21.6408 33.7294 21.5666 33.8025C21.4924 33.8755 21.4502 33.9749 21.449 34.079L21.4095 37.5387C21.4086 37.5899 21.4179 37.6407 21.4369 37.6882C21.456 37.7358 21.4843 37.779 21.5202 37.8154C21.5562 37.8519 21.599 37.8807 21.6463 37.9004C21.6936 37.92 21.7443 37.93 21.7955 37.9297L24.0015 37.9268C24.1058 37.9269 24.2059 37.9675 24.2809 38.0399C24.356 38.1123 24.4 38.2109 24.4039 38.3151L24.4216 38.9069C24.4232 38.9579 24.4146 39.0086 24.3964 39.0563C24.3782 39.1039 24.3507 39.1474 24.3155 39.1843C24.2803 39.2213 24.2382 39.2508 24.1915 39.2713C24.1448 39.2918 24.0945 39.3029 24.0435 39.3038L18.0228 39.4278C17.8074 39.4323 17.5037 39.3188 17.3427 39.1733L14.5205 36.6194C14.3603 36.4745 14.0543 36.3563 13.84 36.3555L1.80972 36.3106C1.59409 36.3098 1.28159 36.2036 1.1105 36.0723L1.06402 36.0366C0.893704 35.9057 0.666751 35.6487 0.557376 35.4625L0.408939 35.2104C0.299564 35.0241 0.210501 34.6973 0.210111 34.4844L0.159915 12.5821C0.159329 12.3674 0.239407 12.036 0.336282 11.8465L0.388626 11.7442C0.486478 11.5526 0.683939 11.2688 0.830618 11.1094L0.961478 10.967C1.10796 10.8081 1.4023 10.679 1.61734 10.6786L48.116 10.6223C48.332 10.6221 48.6402 10.7333 48.807 10.8729L48.8646 10.9211C49.0302 11.0598 49.2572 11.3217 49.3705 11.5043L49.5203 11.7458C49.6339 11.9293 49.7263 12.2532 49.7263 12.47L49.7277 34.2692C49.7277 34.4856 49.674 34.8264 49.6066 35.0338L49.563 35.1672C49.496 35.3731 49.3144 35.6598 49.1558 35.809L49.0248 35.9323C48.8668 36.0809 48.5644 36.2024 48.3488 36.2038L36.096 36.2793C35.8806 36.2807 35.5787 36.3993 35.4175 36.5481L32.6453 39.1067C32.4859 39.254 32.1818 39.375 31.9644 39.3774L27.1058 39.4299C27.0016 39.431 26.9011 39.391 26.8261 39.3186C26.7511 39.2461 26.7077 39.1471 26.7052 39.0428L26.6763 37.6917C26.6737 37.5877 26.6308 37.4887 26.5565 37.4159C26.4822 37.3431 26.3825 37.302 26.2785 37.3014L23.957 37.3077C23.8537 37.3079 23.7546 37.2672 23.6813 37.1944C23.6081 37.1216 23.5667 37.0227 23.5664 36.9194L23.5619 35.0977C23.5621 34.9943 23.6034 34.8952 23.6766 34.8221C23.7499 34.7491 23.8491 34.7081 23.9525 34.7081L26.2863 34.7061C26.3909 34.7056 26.4913 34.6645 26.5663 34.5916C26.6413 34.5186 26.6851 34.4195 26.6886 34.3149L26.723 33.0944C26.7289 32.8786 26.9072 32.7038 27.1228 32.7038L32.1357 32.7032C32.3505 32.7032 32.655 32.819 32.816 32.9624L35.3593 35.2262C35.5203 35.3694 35.8253 35.4852 36.0392 35.485L47.7902 35.4674C48.0048 35.467 48.2773 35.3213 48.3984 35.1424L48.4701 35.0366C48.5914 34.8575 48.6908 34.5393 48.6917 34.3208L48.7953 12.8143C48.7962 12.5981 48.6962 12.2815 48.5701 12.1045L48.4455 11.9299C48.3201 11.7542 48.0455 11.6118 47.8271 11.6122L2.13394 11.6708C1.91792 11.6708 1.62652 11.8032 1.48355 11.9655L1.39898 12.0614Z" fill="black"/>
<path fill-rule="evenodd" clip-rule="evenodd" d="M11.7554 30.2134C11.5405 30.2192 11.2755 30.0749 11.1636 29.8915L4.27021 18.5829C4.15811 18.3991 3.91221 18.172 3.71748 18.0739L3.84932 18.1403C3.65596 18.0431 3.32607 17.9648 3.10811 17.9655L2.99248 17.9657C2.94143 17.9662 2.89081 17.9564 2.84359 17.937C2.79638 17.9176 2.75352 17.8889 2.71754 17.8527C2.68156 17.8165 2.65319 17.7735 2.63409 17.7261C2.615 17.6788 2.60556 17.6281 2.60635 17.5771L2.60498 17.68C2.60687 17.5758 2.6496 17.4764 2.72396 17.4034C2.79833 17.3303 2.89839 17.2894 3.00264 17.2894L10.9571 17.2706C11.0078 17.27 11.0581 17.2797 11.1049 17.2992C11.1517 17.3187 11.194 17.3475 11.2293 17.3839C11.2646 17.4203 11.2921 17.4635 11.3101 17.5109C11.3281 17.5583 11.3363 17.6088 11.3341 17.6595L11.3403 17.5009C11.3317 17.7163 11.1513 17.9023 10.9335 17.9169L10.0653 17.9743C9.84932 17.9888 9.5331 18.1052 9.35928 18.2341L9.64209 18.0241C9.46826 18.153 9.25947 18.4204 9.17744 18.6167L9.27686 18.379C9.19404 18.5773 9.21553 18.8903 9.32412 19.0775L13.0731 25.5376C13.1821 25.7251 13.3538 25.7255 13.4583 25.5355L16.7476 19.5591C16.8515 19.3704 16.9899 19.0513 17.0571 18.8462L17.0132 18.9806C17.0802 18.7755 17.0452 18.4595 16.9343 18.2735L17.037 18.4456C16.9265 18.2603 16.661 18.1017 16.4466 18.0915L15.4282 18.0433C15.2128 18.0331 15.028 17.8517 15.0157 17.6335L15.0212 17.7298C15.0179 17.6787 15.025 17.6275 15.0418 17.5791C15.0586 17.5308 15.085 17.4863 15.1193 17.4483C15.1535 17.4103 15.1951 17.3795 15.2414 17.3578C15.2878 17.3361 15.338 17.3238 15.3892 17.3218L17.9257 17.2142C18.1411 17.205 18.4032 17.0468 18.5116 16.8595L18.8097 16.3444C18.9179 16.1577 19.1427 15.8948 19.3081 15.7607L20.0815 15.1325C20.2485 14.997 20.5474 14.8243 20.7485 14.7472L22.0591 14.2448C22.2605 14.1677 22.5948 14.079 22.8097 14.0464L24.129 13.8462C24.3863 13.8106 24.6456 13.7922 24.9054 13.7911L26.3368 13.8042C26.597 13.808 26.8571 13.819 27.1167 13.8372L28.2181 13.92C28.4333 13.9362 28.7763 14.0011 28.9808 14.0634L29.9935 14.373C30.1995 14.436 30.5403 14.4866 30.7585 14.486L31.9347 14.4831C32.1511 14.4825 32.4124 14.3304 32.519 14.1417L32.6142 13.9737C32.7206 13.7855 32.9812 13.6226 33.1981 13.6093L33.6315 13.5827C33.6819 13.5789 33.7325 13.5855 33.7802 13.6023C33.8279 13.6191 33.8715 13.6455 33.9084 13.6801C33.9453 13.7146 33.9746 13.7564 33.9944 13.8029C34.0143 13.8493 34.0243 13.8994 34.0237 13.9499L34.0282 16.695C34.0287 16.7987 34.0699 16.8981 34.1429 16.9716C34.2159 17.0452 34.315 17.0872 34.4187 17.0884L45.763 17.1605C45.8665 17.1613 45.9655 17.2032 46.0382 17.2769C46.1108 17.3507 46.1512 17.4503 46.1505 17.5538L46.1337 20.6624C46.1325 20.8784 45.9579 21.0337 45.745 21.0097L45.7356 21.0087C45.5222 20.9845 45.2929 20.8005 45.2228 20.5956L45.1837 20.481C45.0963 20.2365 44.9924 19.9982 44.8728 19.7677L44.761 19.5593C44.6591 19.3694 44.4384 19.1077 44.2694 18.9763L43.9046 18.6921C43.6985 18.5351 43.4844 18.3891 43.263 18.2546L43.1743 18.2019C42.9896 18.0925 42.6649 18.0007 42.4499 17.9968L40.6253 17.9655C40.5744 17.9645 40.5238 17.9738 40.4765 17.9927C40.4293 18.0115 40.3863 18.0397 40.3501 18.0755C40.3139 18.1113 40.2852 18.154 40.2658 18.2011C40.2464 18.2481 40.2366 18.2986 40.237 18.3495L40.2796 28.4589C40.2806 28.6747 40.4276 28.946 40.6067 29.0638L40.6304 29.0794C40.8101 29.1976 41.1253 29.3431 41.331 29.4032L41.2255 29.3724C41.4327 29.4329 41.7739 29.4823 41.9927 29.4825L42.5767 29.4829C42.7931 29.4829 42.9685 29.6587 42.9687 29.8732V29.6778C42.9687 29.7818 42.9278 29.8816 42.8547 29.9556C42.7817 30.0296 42.6824 30.0719 42.5784 30.0732L33.6315 30.1937C33.4159 30.1966 33.2575 30.0243 33.2776 29.8099L33.2612 29.9845C33.2813 29.7696 33.4728 29.5825 33.6874 29.5667L34.5437 29.5042C34.7589 29.4884 35.0866 29.3929 35.2761 29.2903L35.3671 29.2415C35.5565 29.139 35.7597 28.8894 35.8224 28.6804C35.8847 28.473 35.9333 28.1292 35.9313 27.9142L35.8403 18.3306C35.8394 18.2272 35.7975 18.1284 35.7238 18.0559C35.6502 17.9834 35.5507 17.9431 35.4474 17.9439L34.4317 17.954C34.2169 17.9562 34.0294 18.1329 34.013 18.3472L34.0013 18.4993C33.9851 18.7142 33.7962 18.8917 33.5819 18.8954L33.238 18.9013C33.0228 18.905 32.7669 18.7525 32.6677 18.5626L32.1968 17.662C32.0972 17.4712 31.8874 17.2001 31.7269 17.0546L30.5534 15.9923C30.3937 15.8478 30.1085 15.6489 29.9179 15.5491L29.4563 15.3075C29.2247 15.1886 28.9888 15.0784 28.7489 14.9771L28.1993 14.7499C28.0001 14.6673 27.6642 14.5784 27.4526 14.5517L26.8259 14.4726C26.5685 14.4432 26.3096 14.4287 26.0505 14.4292L25.186 14.4415C24.971 14.4446 24.6315 14.5017 24.4267 14.5694L23.8638 14.7558C23.6184 14.8403 23.3784 14.9396 23.145 15.0532L22.9536 15.1495C22.7612 15.2462 22.5157 15.4759 22.4062 15.6614L22.4015 15.6694C22.2917 15.8556 22.1155 16.1593 22.0103 16.3441L22.1538 16.0921C22.0476 16.2786 21.9685 16.6026 21.9774 16.8191L21.9782 16.8378C21.987 17.0526 22.0702 17.3839 22.1646 17.5788L22.1587 17.5667C22.2528 17.761 22.472 18.0191 22.6474 18.1425L23.1757 18.514C23.3515 18.6376 23.6601 18.7966 23.8626 18.8681L25.2415 19.3554C25.445 19.4273 25.7767 19.5384 25.9841 19.6042L27.5011 20.0853C27.7077 20.1507 28.0431 20.2575 28.2458 20.3224L29.0196 20.57C29.2243 20.6355 29.5577 20.739 29.7646 20.8009L29.6407 20.7638C29.8476 20.8259 30.0138 20.7021 30.0118 20.486L29.9894 17.5556C29.9884 17.505 29.998 17.4548 30.0174 17.408C30.0368 17.3613 30.0656 17.3191 30.1021 17.284C30.1385 17.2489 30.1819 17.2218 30.2293 17.2042C30.2768 17.1866 30.3273 17.1791 30.3778 17.1819L30.6792 17.1946C30.8954 17.2036 31.1614 17.3595 31.2751 17.546L31.7774 18.3683C31.8903 18.5534 31.8646 18.8319 31.7175 18.9929L31.7048 19.0067C31.5587 19.1667 31.3942 19.4636 31.3368 19.6726L31.1688 20.2839C31.1116 20.4917 30.9087 20.7364 30.7151 20.8308L30.9815 20.7009C30.7882 20.795 30.5401 21.0204 30.5001 21.086L30.6313 20.8712C30.5589 20.9899 30.6604 21.154 30.8614 21.2394L31.8425 21.6554C32.0814 21.7605 32.313 21.8817 32.5356 22.0181L33.0981 22.3735C33.2813 22.4894 33.5423 22.7148 33.6845 22.8812L34.0087 23.2605C34.1749 23.4604 34.3276 23.6713 34.4657 23.8917L34.5317 24.0003C34.6435 24.1845 34.7415 24.5099 34.7505 24.7253L34.7821 25.4784C34.7909 25.7393 34.7893 26.0003 34.7772 26.261L34.7698 26.4009C34.7581 26.6169 34.6468 26.9317 34.5187 27.1075L34.2452 27.4825C34.1183 27.6567 33.8829 27.9122 33.7185 28.054L33.0989 28.5884C32.9349 28.7298 32.6493 28.9316 32.4622 29.0384L31.6606 29.4958C31.4728 29.603 31.1511 29.7292 30.9388 29.7784L29.2921 30.1605C29.0371 30.2179 28.7805 30.2678 28.5226 30.3101L28.0729 30.3808C27.8154 30.418 27.5558 30.4399 27.2956 30.4462L24.8175 30.4751C24.6022 30.4776 24.2556 30.4478 24.0452 30.4083L23.0472 30.2222C22.7916 30.1743 22.5362 30.1257 22.281 30.0763L21.1521 29.8569C20.8965 29.8111 20.6381 29.7833 20.3786 29.7737L19.9153 29.7634C19.7001 29.7587 19.3735 29.8401 19.1849 29.9462L19.181 29.9483C18.9927 30.0542 18.8214 30.313 18.8024 30.4862L18.8401 30.1398C18.8194 30.3312 18.6284 30.4948 18.4134 30.5054L18.1927 30.5163C18.1424 30.5194 18.092 30.5121 18.0446 30.4948C17.9973 30.4775 17.954 30.4506 17.9175 30.4159C17.881 30.3811 17.8521 30.3391 17.8326 30.2927C17.813 30.2462 17.8033 30.1962 17.804 30.1458L17.8134 24.9157C17.8142 24.8118 17.8551 24.7121 17.9277 24.6377C18.0002 24.5632 18.0987 24.5196 18.2026 24.5161L18.4853 24.5089C18.7001 24.5034 18.9278 24.6657 18.9938 24.8694L19.2241 25.5817C19.2903 25.7862 19.436 26.0991 19.5511 26.2829L19.8876 26.82C20.0021 27.0024 20.2181 27.2743 20.3714 27.4286L20.8923 27.9523C21.045 28.106 21.3188 28.3216 21.5017 28.4327L22.4612 29.0167C22.6448 29.1286 22.9642 29.255 23.1761 29.2993L24.3692 29.5495C24.5802 29.5939 24.9247 29.6276 25.1435 29.6249L26.9411 29.6034C27.1579 29.6007 27.5038 29.563 27.7155 29.5189L28.764 29.3003C28.9749 29.2564 29.2657 29.0942 29.4155 28.9358L30.0774 28.2362C30.2261 28.0788 30.3962 27.7851 30.4579 27.5765L30.5188 27.3706C30.5802 27.1636 30.5716 26.8294 30.5009 26.6276L30.3958 26.328C30.3245 26.1249 30.1331 25.8472 29.9671 25.7069L29.9218 25.6685C29.7562 25.5286 29.4614 25.3464 29.2624 25.261L28.4802 24.9255C28.24 24.8244 27.9966 24.731 27.7505 24.6454L26.5108 24.2235C26.3065 24.1542 25.9767 24.0427 25.771 23.9735L24.6612 23.6009C24.4141 23.5193 24.1652 23.4434 23.9146 23.3733L23.1899 23.1747C22.94 23.1026 22.6948 23.0147 22.456 22.9114L22.0116 22.7122C21.7737 22.6048 21.5373 22.4938 21.3026 22.3794L20.5372 22.0032C20.305 21.885 20.0811 21.7512 19.8669 21.6028L19.5312 21.3634C19.3554 21.2378 19.0956 21.0054 18.9509 20.8439L19.029 20.931C18.8843 20.7696 18.6989 20.4798 18.6128 20.2782L18.7384 20.572C18.6532 20.3728 18.6905 20.073 18.8214 19.9028L18.6833 20.0825C18.8142 19.912 19.0517 19.6608 19.2179 19.5181L19.5966 19.1925C19.7606 19.0515 20.0575 18.878 20.2614 18.8046L20.1743 18.8358C20.42 18.7494 20.6687 18.6719 20.92 18.6034C21.129 18.5483 21.2853 18.3271 21.2696 18.1128L21.2647 18.0431C21.2491 17.8273 21.0616 17.6439 20.8464 17.6333L20.803 17.6312C20.5876 17.6206 20.3351 17.7692 20.2815 17.8769L20.4132 17.6122C20.3403 17.7583 20.1105 17.9095 19.8972 17.9501L19.7343 17.981C19.522 18.0214 19.2171 18.1681 19.0544 18.3075L18.939 18.4066C18.7757 18.5466 18.5474 18.805 18.4269 18.9866L18.3493 19.1034C18.2068 19.3218 18.0723 19.5453 17.946 19.7733L12.4581 29.8556C12.355 30.045 12.0968 30.2036 11.8823 30.2095L11.7554 30.2132V30.2134Z" fill="black"/>
</g>
</svg>
