<svg width="50" height="50" viewBox="0 0 50 50" fill="none" xmlns="http://www.w3.org/2000/svg">
<g opacity="0.6">
<path d="M25.0977 30.8594C27.0932 30.8594 28.7109 29.2417 28.7109 27.2461C28.7109 25.2505 27.0932 23.6328 25.0977 23.6328C23.1021 23.6328 21.4844 25.2505 21.4844 27.2461C21.4844 29.2417 23.1021 30.8594 25.0977 30.8594Z" fill="black"/>
<path fill-rule="evenodd" clip-rule="evenodd" d="M17.4353 13.6373L25.2367 9.02307L32.6744 13.5887L32.7218 22.2826L29.0293 24.6403C29.0293 24.6403 26.8574 22.5864 24.8818 22.586C22.9058 22.5856 21.1318 24.6387 21.1318 24.6387L17.6494 22.293L17.4353 13.6373ZM18.3416 21.5008L24.7347 17.6883L24.6683 10.2567L18.1039 14.1602L18.3416 21.501V21.5008ZM18.699 22.4395C19.056 22.4395 21.0427 23.7908 21.0427 23.7908C21.0427 23.7908 22.8373 21.7934 24.9543 21.8584C27.0711 21.9235 29.1181 23.8438 29.1181 23.8438L31.915 22.1961L25.1767 18.5832C25.1767 18.5832 18.342 22.4395 18.6992 22.4395H18.699ZM17.1236 40.9793L9.22693 36.5301L9.46189 27.8061L17.1627 23.2227L20.8554 25.4371C20.8554 25.4371 20.1886 28.2473 21.1761 29.9586C22.1638 31.6699 24.8029 32.2772 24.8029 32.2772L24.708 36.4658L17.1236 40.9793ZM23.4804 36.2625L16.982 32.6324L10.5795 36.4055L17.242 40.1389L23.4803 36.2627L23.4804 36.2625ZM24.1146 35.4838C23.9359 35.1746 24.1131 32.7783 24.1131 32.7783C24.1131 32.7783 21.5121 32.1252 20.5099 30.2594C19.508 28.3938 20.1213 25.7584 20.1213 25.7584L17.2957 24.16L17.5361 31.802C17.5361 31.802 24.2931 35.793 24.1146 35.4836V35.4838ZM40.6019 27.5041L40.6972 36.5674L33.0246 40.726L25.4717 36.4201L25.2763 32.2385C25.2763 32.2385 27.9193 31.678 28.9076 29.967C29.8959 28.2561 29.4215 25.4 29.4215 25.4L32.9988 23.3617L40.6019 27.5041ZM33.3388 24.3573L33.4443 31.8002L39.9131 35.4584L39.815 27.8219L33.3388 24.3573ZM32.5426 24.393L30.2004 25.7469C30.2004 25.7469 30.6162 28.5928 29.5013 30.3934C28.3865 32.1942 26.1168 32.7139 26.1168 32.7139L26.1453 35.5694L32.448 31.7354L32.5426 24.393Z" fill="black"/>
</g>
</svg>
