<svg width="1170" height="261" viewBox="0 0 1170 261" fill="none" xmlns="http://www.w3.org/2000/svg">
<g clip-path="url(#clip0_353_48653)">
<rect width="1170" height="261" fill="#083640"/>
<path opacity="0.2" fill-rule="evenodd" clip-rule="evenodd" d="M627 268.161L661.382 225.142C694.722 180.64 762.444 94.6019 830.167 67.9005C897.889 42.6825 965.611 76.8009 1033.33 112.403C1101.06 146.521 1168.78 180.64 1236.5 198.441C1304.22 216.242 1371.94 216.242 1439.67 198.441C1507.39 180.64 1575.11 146.521 1642.83 119.82C1710.56 94.6019 1778.28 76.8009 1812.66 67.9005L1846 59V372H1812.66C1778.28 372 1710.56 372 1642.83 372C1575.11 372 1507.39 372 1439.67 372C1371.94 372 1304.22 372 1236.5 372C1168.78 372 1101.06 372 1033.33 372C965.611 372 897.889 372 830.167 372C762.444 372 694.722 372 661.382 372H627V268.161Z" fill="#005EC4"/>
<path fill-rule="evenodd" clip-rule="evenodd" d="M196 283.047L230.382 249.924C263.722 215.659 331.444 149.412 399.167 128.853C466.889 109.436 534.611 135.706 602.333 163.118C670.056 189.389 737.778 215.659 805.5 229.365C873.222 243.071 940.944 243.071 1008.67 229.365C1076.39 215.659 1144.11 189.389 1211.83 168.829C1279.56 149.412 1347.28 135.706 1381.66 128.853L1415 122V363H1381.66C1347.28 363 1279.56 363 1211.83 363C1144.11 363 1076.39 363 1008.67 363C940.944 363 873.222 363 805.5 363C737.778 363 670.056 363 602.333 363C534.611 363 466.889 363 399.167 363C331.444 363 263.722 363 230.382 363H196V283.047Z" fill="#00726B"/>
<circle opacity="0.4" cx="797" cy="95" r="27" fill="#89F1B4"/>
<circle opacity="0.4" cx="1045" cy="188" r="27" fill="#89F1B4"/>
<circle opacity="0.4" cx="1161" cy="13" r="27" fill="#89F1B4"/>
</g>
<defs>
<clipPath id="clip0_353_48653">
<rect width="1170" height="261" fill="white"/>
</clipPath>
</defs>
</svg>
