<svg width="16" height="16" viewBox="0 0 16 16" fill="none" xmlns="http://www.w3.org/2000/svg">
<path d="M7.99334 1.33203C4.31334 1.33203 1.33334 4.3187 1.33334 7.9987C1.33334 11.6787 4.31334 14.6654 7.99334 14.6654C11.68 14.6654 14.6667 11.6787 14.6667 7.9987C14.6667 4.3187 11.68 1.33203 7.99334 1.33203ZM8 13.332C5.05334 13.332 2.66667 10.9454 2.66667 7.9987C2.66667 5.05203 5.05334 2.66536 8 2.66536C10.9467 2.66536 13.3333 5.05203 13.3333 7.9987C13.3333 10.9454 10.9467 13.332 8 13.332ZM8.33334 4.66536H7.33334V8.66536L10.8333 10.7654L11.3333 9.94536L8.33334 8.16536V4.66536Z" fill="#98A2B3"/>
</svg>
