<svg width="25" height="24" viewBox="0 0 25 24" fill="none" xmlns="http://www.w3.org/2000/svg">
<path d="M11.5 2H9.5C4.5 2 2.5 4 2.5 9V15C2.5 20 4.5 22 9.5 22H15.5C20.5 22 22.5 20 22.5 15V13" stroke="white" stroke-width="1.5" stroke-linecap="round" stroke-linejoin="round"/>
<path d="M16.5418 3.02001L8.66183 10.9C8.36183 11.2 8.06183 11.79 8.00183 12.22L7.57183 15.23C7.41183 16.32 8.18183 17.08 9.27183 16.93L12.2818 16.5C12.7018 16.44 13.2918 16.14 13.6018 15.84L21.4818 7.96001C22.8418 6.60001 23.4818 5.02001 21.4818 3.02001C19.4818 1.02001 17.9018 1.66001 16.5418 3.02001Z" stroke="white" stroke-width="1.5" stroke-miterlimit="10" stroke-linecap="round" stroke-linejoin="round"/>
<path d="M15.4102 4.15002C16.0802 6.54002 17.9502 8.41002 20.3502 9.09002" stroke="white" stroke-width="1.5" stroke-miterlimit="10" stroke-linecap="round" stroke-linejoin="round"/>
</svg>
