<svg width="17" height="16" viewBox="0 0 17 16" fill="none" xmlns="http://www.w3.org/2000/svg">
<path d="M5.83338 14.6667H11.1667C13.8467 14.6667 14.3267 13.5933 14.4667 12.2867L14.9667 6.95333C15.1467 5.32667 14.68 4 11.8334 4H5.16671C2.32005 4 1.85338 5.32667 2.03338 6.95333L2.53338 12.2867C2.67338 13.5933 3.15338 14.6667 5.83338 14.6667Z" stroke="#076AFF" stroke-width="1.5" stroke-miterlimit="10" stroke-linecap="round" stroke-linejoin="round"/>
<path d="M5.83337 4.00004V3.46671C5.83337 2.28671 5.83337 1.33337 7.96671 1.33337H9.03337C11.1667 1.33337 11.1667 2.28671 11.1667 3.46671V4.00004" stroke="#076AFF" stroke-width="1.5" stroke-miterlimit="10" stroke-linecap="round" stroke-linejoin="round"/>
<path d="M9.83329 8.66667V9.33333C9.83329 9.34 9.83329 9.34 9.83329 9.34667C9.83329 10.0733 9.82663 10.6667 8.49996 10.6667C7.17996 10.6667 7.16663 10.08 7.16663 9.35333V8.66667C7.16663 8 7.16663 8 7.83329 8H9.16663C9.83329 8 9.83329 8 9.83329 8.66667Z" stroke="#076AFF" stroke-width="1.5" stroke-miterlimit="10" stroke-linecap="round" stroke-linejoin="round"/>
<path d="M14.9334 7.33337C13.3934 8.45337 11.6334 9.12004 9.83337 9.34671" stroke="#076AFF" stroke-width="1.5" stroke-miterlimit="10" stroke-linecap="round" stroke-linejoin="round"/>
<path d="M2.2467 7.51331C3.7467 8.53997 5.44004 9.15997 7.1667 9.35331" stroke="#076AFF" stroke-width="1.5" stroke-miterlimit="10" stroke-linecap="round" stroke-linejoin="round"/>
</svg>
