<svg width="22" height="18" viewBox="0 0 22 18" fill="none" xmlns="http://www.w3.org/2000/svg">
<path d="M6.26046 14.129C4.41546 12.819 2.95546 11.115 2.13046 10.039C1.89976 9.74198 1.77454 9.37659 1.77454 9.0005C1.77454 8.62441 1.89976 8.25902 2.13046 7.962C3.62346 6.013 7.20546 2 11.3875 2C13.2635 2 15.0175 2.807 16.5175 3.874" stroke="#505050" stroke-width="2" stroke-linecap="round" stroke-linejoin="round"/>
<path d="M13.5175 6.887C13.2397 6.60467 12.9089 6.38011 12.544 6.22629C12.179 6.07246 11.7873 5.99241 11.3912 5.99075C10.9952 5.98909 10.6028 6.06586 10.2366 6.21662C9.8704 6.36738 9.53767 6.58916 9.25761 6.86915C8.97755 7.14915 8.75569 7.48183 8.60484 7.84799C8.454 8.21416 8.37714 8.60657 8.3787 9.00259C8.38027 9.3986 8.46023 9.79039 8.61397 10.1554C8.76771 10.5203 8.99218 10.8512 9.27445 11.129M3.38745 17L19.3875 1M9.38745 15.704C10.0367 15.8972 10.7101 15.9969 11.3875 16C15.5695 16 19.1515 11.987 20.6445 10.038C20.8751 9.74071 21.0002 9.37509 21 8.99883C20.9998 8.62256 20.8744 8.25707 20.6435 7.96C20.1187 7.27549 19.5559 6.62112 18.9575 6" stroke="#505050" stroke-width="2" stroke-linecap="round" stroke-linejoin="round"/>
</svg>
