<svg width="16" height="16" viewBox="0 0 16 16" fill="none" xmlns="http://www.w3.org/2000/svg">
<path d="M2.00671 7.47998V10.4733C2.00671 13.4666 3.20671 14.6666 6.20005 14.6666H9.79338C12.7867 14.6666 13.9867 13.4666 13.9867 10.4733V7.47998" stroke="#FF9900" stroke-width="1.5" stroke-linecap="round" stroke-linejoin="round"/>
<path d="M7.99999 8.00004C9.21999 8.00004 10.12 7.00671 9.99999 5.78671L9.55999 1.33337H6.44666L5.99999 5.78671C5.87999 7.00671 6.77999 8.00004 7.99999 8.00004Z" stroke="#FF9900" stroke-width="1.5" stroke-linecap="round" stroke-linejoin="round"/>
<path d="M12.2067 8.00004C13.5533 8.00004 14.54 6.90671 14.4067 5.56671L14.22 3.73337C13.98 2.00004 13.3133 1.33337 11.5667 1.33337H9.53333L9.99999 6.00671C10.1133 7.10671 11.1067 8.00004 12.2067 8.00004Z" stroke="#FF9900" stroke-width="1.5" stroke-linecap="round" stroke-linejoin="round"/>
<path d="M3.76004 8.00004C4.86004 8.00004 5.85338 7.10671 5.96004 6.00671L6.10671 4.53337L6.42671 1.33337H4.39338C2.64671 1.33337 1.98004 2.00004 1.74004 3.73337L1.56004 5.56671C1.42671 6.90671 2.41338 8.00004 3.76004 8.00004Z" stroke="#FF9900" stroke-width="1.5" stroke-linecap="round" stroke-linejoin="round"/>
<path d="M8.00004 11.3334C6.88671 11.3334 6.33337 11.8867 6.33337 13V14.6667H9.66671V13C9.66671 11.8867 9.11337 11.3334 8.00004 11.3334Z" stroke="#FF9900" stroke-width="1.5" stroke-linecap="round" stroke-linejoin="round"/>
</svg>
