<svg width="18" height="18" viewBox="0 0 18 18" fill="none" xmlns="http://www.w3.org/2000/svg">
<path fill-rule="evenodd" clip-rule="evenodd" d="M9 0C8.52188 0 8.04375 0.2565 7.812 0.76725L5.81626 5.1525L1.12503 5.82187C0.0596613 5.97487 -0.376837 7.2855 0.38141 8.05163L3.84977 11.556L3.00602 16.4587C2.85977 17.3126 3.5359 18 4.29527 18C4.50902 18 4.72952 17.946 4.93877 17.8267L9 15.5138L13.0612 17.8267C13.2705 17.946 13.491 18 13.7047 18C14.4641 18 15.1402 17.3126 14.994 16.4587L14.1502 11.556L17.6186 8.05163C18.3768 7.2855 17.9403 5.97487 16.875 5.82187L12.1837 5.1525L10.188 0.76725C9.95625 0.2565 9.47812 0 9 0Z" fill="#00C885"/>
</svg>
