<svg width="16" height="16" viewBox="0 0 16 16" fill="none" xmlns="http://www.w3.org/2000/svg">
<path d="M10.9067 9.33398C10.96 8.89398 11 8.45398 11 8.00065C11 7.54732 10.96 7.10732 10.9067 6.66732H13.16C13.2667 7.09398 13.3334 7.54065 13.3334 8.00065C13.3334 8.46065 13.2667 8.90732 13.16 9.33398M9.72671 13.0407C10.1267 12.3006 10.4334 11.5007 10.6467 10.6673H12.6134C11.9675 11.7795 10.9428 12.622 9.72671 13.0407ZM9.56004 9.33398H6.44004C6.37337 8.89398 6.33337 8.45398 6.33337 8.00065C6.33337 7.54732 6.37337 7.10065 6.44004 6.66732H9.56004C9.62004 7.10065 9.66671 7.54732 9.66671 8.00065C9.66671 8.45398 9.62004 8.89398 9.56004 9.33398ZM8.00004 13.3073C7.44671 12.5073 7.00004 11.6207 6.72671 10.6673H9.27337C9.00004 11.6207 8.55337 12.5073 8.00004 13.3073ZM5.33337 5.33398H3.38671C4.02594 4.21879 5.0499 3.37498 6.26671 2.96065C5.86671 3.70065 5.56671 4.50065 5.33337 5.33398ZM3.38671 10.6673H5.33337C5.56671 11.5007 5.86671 12.3006 6.26671 13.0407C5.05246 12.6218 4.02994 11.7791 3.38671 10.6673ZM2.84004 9.33398C2.73337 8.90732 2.66671 8.46065 2.66671 8.00065C2.66671 7.54065 2.73337 7.09398 2.84004 6.66732H5.09337C5.04004 7.10732 5.00004 7.54732 5.00004 8.00065C5.00004 8.45398 5.04004 8.89398 5.09337 9.33398M8.00004 2.68732C8.55337 3.48732 9.00004 4.38065 9.27337 5.33398H6.72671C7.00004 4.38065 7.44671 3.48732 8.00004 2.68732ZM12.6134 5.33398H10.6467C10.4381 4.50829 10.1291 3.71125 9.72671 2.96065C10.9534 3.38065 11.9734 4.22732 12.6134 5.33398ZM8.00004 1.33398C4.31337 1.33398 1.33337 4.33398 1.33337 8.00065C1.33337 9.76876 2.03575 11.4645 3.286 12.7147C3.90505 13.3338 4.63998 13.8248 5.44882 14.1598C6.25765 14.4949 7.12456 14.6673 8.00004 14.6673C9.76815 14.6673 11.4638 13.9649 12.7141 12.7147C13.9643 11.4645 14.6667 9.76876 14.6667 8.00065C14.6667 7.12517 14.4943 6.25827 14.1592 5.44943C13.8242 4.64059 13.3331 3.90566 12.7141 3.28661C12.095 2.66755 11.3601 2.17649 10.5513 1.84145C9.74243 1.50642 8.87552 1.33398 8.00004 1.33398Z" fill="#343741"/>
</svg>
